<svg xmlns="http://www.w3.org/2000/svg" xmlns:xlink="http://www.w3.org/1999/xlink" width="500" zoomAndPan="magnify" viewBox="0 0 375 374.999991" height="500" preserveAspectRatio="xMidYMid meet" version="1.0"><defs><g/><clipPath id="941418381d"><path d="M 89 134.730469 L 147 134.730469 L 147 180 L 89 180 Z M 89 134.730469 " clip-rule="nonzero"/></clipPath><clipPath id="9a91641414"><path d="M 108 208 L 128 208 L 128 223.980469 L 108 223.980469 Z M 108 208 " clip-rule="nonzero"/></clipPath><clipPath id="9b2853c79a"><path d="M 137 163 L 157.574219 163 L 157.574219 193 L 137 193 Z M 137 163 " clip-rule="nonzero"/></clipPath><clipPath id="f99651fad1"><path d="M 78.34375 163 L 99 163 L 99 193 L 78.34375 193 Z M 78.34375 163 " clip-rule="nonzero"/></clipPath><clipPath id="d65b2b392e"><path d="M 96.226562 154.804688 L 139.695312 154.804688 L 139.695312 198.273438 L 96.226562 198.273438 Z M 96.226562 154.804688 " clip-rule="nonzero"/></clipPath><clipPath id="14f1b33b35"><path d="M 117.960938 154.804688 C 105.957031 154.804688 96.226562 164.535156 96.226562 176.539062 C 96.226562 188.542969 105.957031 198.273438 117.960938 198.273438 C 129.964844 198.273438 139.695312 188.542969 139.695312 176.539062 C 139.695312 164.535156 129.964844 154.804688 117.960938 154.804688 Z M 117.960938 154.804688 " clip-rule="nonzero"/></clipPath><clipPath id="448e15f096"><path d="M 102.867188 159.976562 L 132.867188 159.976562 L 132.867188 192.976562 L 102.867188 192.976562 Z M 102.867188 159.976562 " clip-rule="nonzero"/></clipPath></defs><g clip-path="url(#941418381d)"><path fill="#364f6b" d="M 95.621094 176.230469 C 95.621094 163.902344 105.628906 153.894531 117.957031 153.894531 C 130.285156 153.894531 140.292969 163.902344 140.292969 176.230469 C 140.292969 177.992188 141.71875 179.421875 143.484375 179.421875 C 145.246094 179.421875 146.675781 177.992188 146.675781 176.230469 C 146.675781 176.230469 146.675781 161.839844 146.675781 150.703125 C 146.675781 141.890625 139.53125 134.75 130.71875 134.75 C 122.925781 134.75 112.992188 134.75 105.195312 134.75 C 96.382812 134.75 89.242188 141.890625 89.242188 150.703125 L 89.242188 176.230469 C 89.242188 177.992188 90.667969 179.421875 92.429688 179.421875 C 94.195312 179.421875 95.621094 177.992188 95.621094 176.230469 Z M 95.621094 158.1875 L 95.621094 150.703125 C 95.621094 145.417969 99.910156 141.132812 105.195312 141.132812 C 112.992188 141.132812 122.925781 141.132812 130.71875 141.132812 C 136.003906 141.132812 140.292969 145.417969 140.292969 150.703125 L 140.292969 158.1875 C 135.027344 151.675781 126.976562 147.511719 117.957031 147.511719 C 108.941406 147.511719 100.886719 151.675781 95.621094 158.1875 " fill-opacity="1" fill-rule="evenodd"/></g><path fill="#364f6b" d="M 111.574219 219.304688 C 107.144531 219.304688 109.089844 219.304688 105.195312 219.304688 C 96.382812 219.304688 89.242188 212.164062 89.242188 203.351562 L 89.242188 176.230469 C 89.242188 174.464844 90.667969 173.039062 92.429688 173.039062 C 94.195312 173.039062 95.621094 174.464844 95.621094 176.230469 L 95.621094 203.351562 C 95.621094 208.636719 99.910156 212.925781 105.195312 212.925781 C 109.089844 212.925781 107.144531 212.925781 111.574219 212.925781 C 113.339844 212.925781 114.765625 214.351562 114.765625 216.113281 C 114.765625 217.878906 113.339844 219.304688 111.574219 219.304688 " fill-opacity="1" fill-rule="evenodd"/><path fill="#ffde59" d="M 111.574219 211.328125 L 124.339844 211.328125 L 124.339844 220.902344 L 111.574219 220.902344 L 111.574219 211.328125 " fill-opacity="1" fill-rule="evenodd"/><g clip-path="url(#9a91641414)"><path fill="#364f6b" d="M 108.386719 211.328125 C 108.386719 209.566406 109.8125 208.136719 111.574219 208.136719 L 124.339844 208.136719 C 126.101562 208.136719 127.53125 209.566406 127.53125 211.328125 L 127.53125 220.902344 C 127.53125 222.664062 126.101562 224.089844 124.339844 224.089844 L 111.574219 224.089844 C 109.8125 224.089844 108.386719 222.664062 108.386719 220.902344 Z M 121.148438 214.519531 L 121.148438 217.710938 L 114.765625 217.710938 L 114.765625 214.519531 L 121.148438 214.519531 " fill-opacity="1" fill-rule="evenodd"/></g><path fill="#364f6b" d="M 106.796875 195.574219 C 110.082031 197.476562 113.894531 198.566406 117.957031 198.566406 C 130.285156 198.566406 140.292969 188.558594 140.292969 176.230469 C 140.292969 163.902344 130.285156 153.894531 117.957031 153.894531 C 105.628906 153.894531 95.621094 163.902344 95.621094 176.230469 C 95.621094 177.992188 94.195312 179.421875 92.429688 179.421875 C 90.667969 179.421875 89.242188 177.992188 89.242188 176.230469 C 89.242188 160.382812 102.109375 147.511719 117.957031 147.511719 C 133.804688 147.511719 146.675781 160.382812 146.675781 176.230469 C 146.675781 192.078125 133.804688 204.945312 117.957031 204.945312 C 112.730469 204.945312 107.824219 203.542969 103.59375 201.09375 C 102.070312 200.21875 101.546875 198.261719 102.433594 196.738281 C 103.3125 195.210938 105.269531 194.695312 106.796875 195.574219 " fill-opacity="1" fill-rule="evenodd"/><path fill="#ffde59" d="M 140.324219 188.539062 C 141.320312 188.832031 142.386719 188.992188 143.484375 188.992188 C 149.648438 188.992188 154.652344 183.988281 154.652344 177.824219 C 154.652344 171.660156 149.648438 166.65625 143.484375 166.65625 C 142.871094 166.65625 142.269531 166.707031 141.683594 166.800781 C 142.847656 169.71875 143.484375 172.902344 143.484375 176.230469 C 143.484375 180.691406 142.335938 184.886719 140.324219 188.539062 " fill-opacity="1" fill-rule="evenodd"/><g clip-path="url(#9b2853c79a)"><path fill="#364f6b" d="M 139.421875 191.597656 C 138.492188 191.324219 137.738281 190.644531 137.371094 189.753906 C 137.003906 188.855469 137.058594 187.839844 137.527344 186.992188 C 139.289062 183.800781 140.292969 180.132812 140.292969 176.230469 C 140.292969 173.320312 139.730469 170.535156 138.714844 167.984375 C 138.359375 167.082031 138.429688 166.070312 138.910156 165.230469 C 139.382812 164.390625 140.21875 163.808594 141.171875 163.652344 C 141.925781 163.527344 142.699219 163.46875 143.484375 163.46875 C 151.410156 163.46875 157.84375 169.898438 157.84375 177.824219 C 157.84375 185.753906 151.410156 192.183594 143.484375 192.183594 C 142.070312 192.183594 140.703125 191.976562 139.421875 191.597656 Z M 146.050781 170.273438 C 149.199219 171.34375 151.460938 174.324219 151.460938 177.824219 C 151.460938 181.675781 148.726562 184.890625 145.097656 185.640625 C 146.121094 182.691406 146.675781 179.527344 146.675781 176.230469 C 146.675781 174.1875 146.460938 172.191406 146.050781 170.273438 " fill-opacity="1" fill-rule="evenodd"/></g><path fill="#ffde59" d="M 94.230469 166.800781 C 93.644531 166.707031 93.042969 166.65625 92.429688 166.65625 C 86.269531 166.65625 81.261719 171.660156 81.261719 177.824219 C 81.261719 183.988281 86.269531 188.992188 92.429688 188.992188 C 93.527344 188.992188 94.59375 188.832031 95.589844 188.539062 C 93.578125 184.886719 92.429688 180.691406 92.429688 176.230469 C 92.429688 172.902344 93.066406 169.71875 94.230469 166.800781 " fill-opacity="1" fill-rule="evenodd"/><g clip-path="url(#f99651fad1)"><path fill="#364f6b" d="M 94.742188 163.652344 C 95.695312 163.808594 96.53125 164.390625 97.003906 165.230469 C 97.484375 166.070312 97.554688 167.082031 97.199219 167.984375 C 96.183594 170.535156 95.621094 173.320312 95.621094 176.230469 C 95.621094 180.132812 96.625 183.800781 98.390625 186.992188 C 98.855469 187.839844 98.914062 188.855469 98.542969 189.753906 C 98.175781 190.644531 97.421875 191.324219 96.496094 191.597656 C 95.210938 191.976562 93.847656 192.183594 92.429688 192.183594 C 84.503906 192.183594 78.074219 185.753906 78.074219 177.824219 C 78.074219 169.898438 84.503906 163.46875 92.429688 163.46875 C 93.214844 163.46875 93.988281 163.527344 94.742188 163.652344 Z M 89.863281 170.273438 C 89.453125 172.191406 89.242188 174.1875 89.242188 176.230469 C 89.242188 179.527344 89.796875 182.691406 90.816406 185.640625 C 87.191406 184.890625 84.453125 181.675781 84.453125 177.824219 C 84.453125 174.324219 86.714844 171.34375 89.863281 170.273438 " fill-opacity="1" fill-rule="evenodd"/></g><path fill="#364f6b" d="M 108.386719 176.230469 C 108.386719 181.515625 112.671875 185.800781 117.957031 185.800781 C 123.242188 185.800781 127.53125 181.515625 127.53125 176.230469 C 127.53125 174.464844 128.957031 173.039062 130.71875 173.039062 C 132.484375 173.039062 133.910156 174.464844 133.910156 176.230469 C 133.910156 185.035156 126.761719 192.183594 117.957031 192.183594 C 109.152344 192.183594 102.003906 185.035156 102.003906 176.230469 C 102.003906 174.464844 103.429688 173.039062 105.195312 173.039062 C 106.957031 173.039062 108.386719 174.464844 108.386719 176.230469 " fill-opacity="1" fill-rule="evenodd"/><g clip-path="url(#d65b2b392e)"><g clip-path="url(#14f1b33b35)"><path fill="#ffffff" d="M 96.226562 154.804688 L 139.695312 154.804688 L 139.695312 198.273438 L 96.226562 198.273438 Z M 96.226562 154.804688 " fill-opacity="1" fill-rule="nonzero"/></g></g><g clip-path="url(#448e15f096)"><path fill="#ffde59" d="M 121.136719 193.09375 L 114.777344 193.09375 L 114.777344 188.007812 L 121.136719 188.007812 C 124.886719 188.007812 127.933594 184.957031 127.933594 181.207031 C 127.933594 177.457031 124.886719 174.40625 121.136719 174.40625 L 114.335938 174.40625 C 112.929688 174.40625 111.792969 173.265625 111.792969 171.863281 L 111.792969 169.320312 L 121.136719 169.320312 C 123.65625 169.320312 125.988281 170.113281 127.914062 171.457031 C 127.703125 167.890625 124.753906 165.0625 121.136719 165.0625 L 114.777344 165.0625 C 111.027344 165.0625 107.976562 168.113281 107.976562 171.863281 C 107.976562 175.613281 111.027344 178.664062 114.777344 178.664062 L 121.578125 178.664062 C 122.984375 178.664062 124.121094 179.804688 124.121094 181.207031 L 124.121094 183.75 L 114.777344 183.75 C 112.257812 183.75 109.925781 182.957031 108 181.613281 C 108.210938 185.179688 111.160156 188.007812 114.777344 188.007812 L 114.777344 193.09375 C 110.429688 193.09375 106.621094 190.746094 104.550781 187.253906 C 103.050781 184.726562 104.6875 181.566406 107.5 181.238281 C 104.703125 179.0625 102.894531 175.671875 102.894531 171.863281 C 102.894531 165.308594 108.226562 159.976562 114.777344 159.976562 L 121.136719 159.976562 C 125.484375 159.976562 129.292969 162.324219 131.367188 165.816406 C 132.863281 168.34375 131.226562 171.503906 128.414062 171.832031 C 131.210938 174.007812 133.019531 177.398438 133.019531 181.207031 C 133.019531 187.761719 127.691406 193.09375 121.136719 193.09375 Z M 121.136719 193.09375 " fill-opacity="1" fill-rule="nonzero"/></g><path fill="#ffde59" d="M 178.246094 184.648438 L 322.707031 184.648438 L 322.707031 199.699219 L 178.246094 199.699219 L 178.246094 184.648438 " fill-opacity="1" fill-rule="nonzero"/><g fill="#ffffff" fill-opacity="1"><g transform="translate(182.044987, 195.549993)"><g><path d="M 3.953125 0.140625 C 5.4375 0.140625 6.53125 -0.609375 7 -1.9375 L 5.953125 -2.34375 C 5.640625 -1.40625 4.9375 -0.890625 3.953125 -0.890625 C 2.515625 -0.890625 1.6875 -1.96875 1.6875 -3.6875 C 1.6875 -5.40625 2.515625 -6.484375 3.953125 -6.484375 C 4.9375 -6.484375 5.640625 -5.953125 5.953125 -5.03125 L 7 -5.421875 C 6.53125 -6.75 5.4375 -7.5 3.953125 -7.5 C 1.859375 -7.5 0.546875 -6.109375 0.546875 -3.6875 C 0.546875 -1.265625 1.859375 0.140625 3.953125 0.140625 Z M 3.953125 0.140625 "/></g></g></g><g fill="#ffffff" fill-opacity="1"><g transform="translate(190.872548, 195.549993)"><g><path d="M 3.8125 0.140625 C 5.703125 0.140625 6.765625 -0.90625 6.765625 -2.78125 L 6.765625 -7.359375 L 5.609375 -7.359375 L 5.609375 -2.65625 C 5.609375 -1.5 4.9375 -0.875 3.8125 -0.875 C 2.6875 -0.875 2.015625 -1.5 2.015625 -2.65625 L 2.015625 -7.359375 L 0.84375 -7.359375 L 0.84375 -2.734375 C 0.84375 -0.890625 1.921875 0.140625 3.8125 0.140625 Z M 3.8125 0.140625 "/></g></g></g><g fill="#ffffff" fill-opacity="1"><g transform="translate(199.945757, 195.549993)"><g><path d="M 3.359375 0.125 C 4.96875 0.125 6.046875 -0.75 6.046875 -2.21875 C 6.046875 -3.375 5.3125 -4.09375 4.03125 -4.3125 L 2.953125 -4.5 C 2.109375 -4.65625 1.859375 -5.03125 1.859375 -5.53125 C 1.859375 -6.234375 2.375 -6.53125 3.09375 -6.53125 C 3.828125 -6.53125 4.5625 -6.203125 5.09375 -5.578125 L 5.765625 -6.359375 C 5.046875 -7.140625 4.125 -7.5 3.125 -7.5 C 1.71875 -7.5 0.734375 -6.8125 0.734375 -5.421875 C 0.734375 -4.328125 1.390625 -3.65625 2.625 -3.4375 L 3.734375 -3.25 C 4.609375 -3.09375 4.90625 -2.6875 4.90625 -2.09375 C 4.90625 -1.234375 4.265625 -0.90625 3.421875 -0.90625 C 2.46875 -0.90625 1.71875 -1.328125 1.1875 -2.203125 L 0.390625 -1.484375 C 0.953125 -0.421875 2.109375 0.125 3.359375 0.125 Z M 3.359375 0.125 "/></g></g></g><g fill="#ffffff" fill-opacity="1"><g transform="translate(207.892697, 195.549993)"><g><path d="M 2.625 0 L 3.796875 0 L 3.796875 -6.375 L 6.15625 -6.375 L 6.15625 -7.359375 L 0.265625 -7.359375 L 0.265625 -6.375 L 2.625 -6.375 Z M 2.625 0 "/></g></g></g><g fill="#ffffff" fill-opacity="1"><g transform="translate(215.760841, 195.549993)"><g><path d="M 3.953125 0.140625 C 6.015625 0.140625 7.34375 -1.265625 7.34375 -3.6875 C 7.34375 -6.109375 6.015625 -7.5 3.953125 -7.5 C 1.859375 -7.5 0.546875 -6.109375 0.546875 -3.6875 C 0.546875 -1.265625 1.859375 0.140625 3.953125 0.140625 Z M 3.953125 -0.875 C 2.515625 -0.875 1.6875 -1.953125 1.6875 -3.6875 C 1.6875 -5.40625 2.515625 -6.484375 3.953125 -6.484375 C 5.359375 -6.484375 6.203125 -5.40625 6.203125 -3.6875 C 6.203125 -1.953125 5.359375 -0.875 3.953125 -0.875 Z M 3.953125 -0.875 "/></g></g></g><g fill="#ffffff" fill-opacity="1"><g transform="translate(225.098235, 195.549993)"><g><path d="M 7.109375 -7.359375 L 5.015625 -1.3125 L 2.90625 -7.359375 L 1 -7.359375 L 1 0 L 2.171875 0 L 2.171875 -6.265625 L 2.21875 -6.265625 L 4.390625 0 L 5.625 0 L 7.8125 -6.265625 L 7.84375 -6.265625 L 7.84375 0 L 9 0 L 9 -7.359375 Z M 7.109375 -7.359375 "/></g></g></g><g fill="#ffffff" fill-opacity="1"><g transform="translate(236.553759, 195.549993)"><g><path d="M 1 0 L 6.46875 0 L 6.46875 -1 L 2.171875 -1 L 2.171875 -3.1875 L 5.953125 -3.1875 L 5.953125 -4.1875 L 2.171875 -4.1875 L 2.171875 -6.359375 L 6.296875 -6.359375 L 6.296875 -7.359375 L 1 -7.359375 Z M 1 0 "/></g></g></g><g fill="#ffffff" fill-opacity="1"><g transform="translate(244.968817, 195.549993)"><g><path d="M 7.015625 0.015625 L 5.375 -2.84375 C 6.40625 -3.109375 6.984375 -3.875 6.984375 -5.015625 C 6.984375 -6.484375 6.03125 -7.359375 4.5 -7.359375 L 1 -7.359375 L 1 0 L 2.15625 0 L 2.15625 -2.734375 L 4.171875 -2.734375 L 5.6875 0.015625 Z M 2.15625 -6.359375 L 4.40625 -6.359375 C 5.375 -6.359375 5.828125 -5.859375 5.828125 -5.015625 C 5.828125 -4.171875 5.375 -3.75 4.40625 -3.75 L 2.15625 -3.75 Z M 2.15625 -6.359375 "/></g></g></g><g fill="#ffffff" fill-opacity="1"><g transform="translate(253.958597, 195.549993)"><g/></g></g><g fill="#ffffff" fill-opacity="1"><g transform="translate(258.026158, 195.549993)"><g><path d="M 3.359375 0.125 C 4.96875 0.125 6.046875 -0.75 6.046875 -2.21875 C 6.046875 -3.375 5.3125 -4.09375 4.03125 -4.3125 L 2.953125 -4.5 C 2.109375 -4.65625 1.859375 -5.03125 1.859375 -5.53125 C 1.859375 -6.234375 2.375 -6.53125 3.09375 -6.53125 C 3.828125 -6.53125 4.5625 -6.203125 5.09375 -5.578125 L 5.765625 -6.359375 C 5.046875 -7.140625 4.125 -7.5 3.125 -7.5 C 1.71875 -7.5 0.734375 -6.8125 0.734375 -5.421875 C 0.734375 -4.328125 1.390625 -3.65625 2.625 -3.4375 L 3.734375 -3.25 C 4.609375 -3.09375 4.90625 -2.6875 4.90625 -2.09375 C 4.90625 -1.234375 4.265625 -0.90625 3.421875 -0.90625 C 2.46875 -0.90625 1.71875 -1.328125 1.1875 -2.203125 L 0.390625 -1.484375 C 0.953125 -0.421875 2.109375 0.125 3.359375 0.125 Z M 3.359375 0.125 "/></g></g></g><g fill="#ffffff" fill-opacity="1"><g transform="translate(265.973095, 195.549993)"><g><path d="M 3.8125 0.140625 C 5.703125 0.140625 6.765625 -0.90625 6.765625 -2.78125 L 6.765625 -7.359375 L 5.609375 -7.359375 L 5.609375 -2.65625 C 5.609375 -1.5 4.9375 -0.875 3.8125 -0.875 C 2.6875 -0.875 2.015625 -1.5 2.015625 -2.65625 L 2.015625 -7.359375 L 0.84375 -7.359375 L 0.84375 -2.734375 C 0.84375 -0.890625 1.921875 0.140625 3.8125 0.140625 Z M 3.8125 0.140625 "/></g></g></g><g fill="#ffffff" fill-opacity="1"><g transform="translate(275.046303, 195.549993)"><g><path d="M 1 0 L 2.15625 0 L 2.15625 -2.734375 L 4.515625 -2.734375 C 6.078125 -2.734375 6.984375 -3.578125 6.984375 -5.015625 C 6.984375 -6.484375 6.046875 -7.359375 4.515625 -7.359375 L 1 -7.359375 Z M 2.15625 -3.75 L 2.15625 -6.359375 L 4.40625 -6.359375 C 5.375 -6.359375 5.828125 -5.859375 5.828125 -5.015625 C 5.828125 -4.171875 5.375 -3.75 4.40625 -3.75 Z M 2.15625 -3.75 "/></g></g></g><g fill="#ffffff" fill-opacity="1"><g transform="translate(283.878503, 195.549993)"><g><path d="M 1 0 L 2.15625 0 L 2.15625 -2.734375 L 4.515625 -2.734375 C 6.078125 -2.734375 6.984375 -3.578125 6.984375 -5.015625 C 6.984375 -6.484375 6.046875 -7.359375 4.515625 -7.359375 L 1 -7.359375 Z M 2.15625 -3.75 L 2.15625 -6.359375 L 4.40625 -6.359375 C 5.375 -6.359375 5.828125 -5.859375 5.828125 -5.015625 C 5.828125 -4.171875 5.375 -3.75 4.40625 -3.75 Z M 2.15625 -3.75 "/></g></g></g><g fill="#ffffff" fill-opacity="1"><g transform="translate(292.710698, 195.549993)"><g><path d="M 3.953125 0.140625 C 6.015625 0.140625 7.34375 -1.265625 7.34375 -3.6875 C 7.34375 -6.109375 6.015625 -7.5 3.953125 -7.5 C 1.859375 -7.5 0.546875 -6.109375 0.546875 -3.6875 C 0.546875 -1.265625 1.859375 0.140625 3.953125 0.140625 Z M 3.953125 -0.875 C 2.515625 -0.875 1.6875 -1.953125 1.6875 -3.6875 C 1.6875 -5.40625 2.515625 -6.484375 3.953125 -6.484375 C 5.359375 -6.484375 6.203125 -5.40625 6.203125 -3.6875 C 6.203125 -1.953125 5.359375 -0.875 3.953125 -0.875 Z M 3.953125 -0.875 "/></g></g></g><g fill="#ffffff" fill-opacity="1"><g transform="translate(302.048092, 195.549993)"><g><path d="M 7.015625 0.015625 L 5.375 -2.84375 C 6.40625 -3.109375 6.984375 -3.875 6.984375 -5.015625 C 6.984375 -6.484375 6.03125 -7.359375 4.5 -7.359375 L 1 -7.359375 L 1 0 L 2.15625 0 L 2.15625 -2.734375 L 4.171875 -2.734375 L 5.6875 0.015625 Z M 2.15625 -6.359375 L 4.40625 -6.359375 C 5.375 -6.359375 5.828125 -5.859375 5.828125 -5.015625 C 5.828125 -4.171875 5.375 -3.75 4.40625 -3.75 L 2.15625 -3.75 Z M 2.15625 -6.359375 "/></g></g></g><g fill="#ffffff" fill-opacity="1"><g transform="translate(311.037872, 195.549993)"><g><path d="M 2.625 0 L 3.796875 0 L 3.796875 -6.375 L 6.15625 -6.375 L 6.15625 -7.359375 L 0.265625 -7.359375 L 0.265625 -6.375 L 2.625 -6.375 Z M 2.625 0 "/></g></g></g><g fill="#364f6b" fill-opacity="1"><g transform="translate(166.419985, 179.799963)"><g><path d="M 9.828125 0.515625 C 15.265625 0.515625 18.546875 -2.265625 18.546875 -6.953125 C 18.546875 -11.34375 15.296875 -12.96875 11.75 -13.65625 L 9.0625 -14.171875 C 6.9375 -14.5625 6.4375 -15.171875 6.4375 -16.203125 C 6.4375 -17.484375 7.4375 -18 8.828125 -18 C 10.78125 -18 13.34375 -16.96875 14.71875 -15.578125 L 17.53125 -19.390625 C 15.15625 -21.28125 12.15625 -22.28125 9.046875 -22.28125 C 4.546875 -22.28125 1.265625 -20.1875 1.265625 -15.53125 C 1.265625 -11.546875 3.984375 -9.8125 7.1875 -9.1875 L 10.71875 -8.5 C 12.578125 -8.15625 13.1875 -7.578125 13.1875 -6.34375 C 13.1875 -4.640625 11.890625 -4.0625 10.078125 -4.0625 C 7.859375 -4.0625 5.859375 -4.890625 3.796875 -6.8125 L 0.8125 -2.9375 C 2.890625 -0.90625 6.015625 0.515625 9.828125 0.515625 Z M 9.828125 0.515625 "/></g></g></g><g fill="#364f6b" fill-opacity="1"><g transform="translate(184.867664, 179.799963)"><g><path d="M 8.21875 0 L 13.65625 0 L 13.65625 -8.4375 L 21.8125 -21.71875 L 15.71875 -21.71875 L 11.0625 -13.171875 L 6.140625 -21.71875 L 0.046875 -21.71875 L 8.21875 -8.4375 Z M 8.21875 0 "/></g></g></g><g fill="#364f6b" fill-opacity="1"><g transform="translate(205.857957, 179.799963)"><g><path d="M 2.359375 0 L 7.8125 0 L 7.8125 -13.40625 L 7.96875 -13.40625 L 16.75 0 L 22.28125 0 L 22.28125 -21.71875 L 16.84375 -21.71875 L 16.84375 -8.15625 L 16.71875 -8.15625 L 7.828125 -21.71875 L 2.359375 -21.71875 Z M 2.359375 0 "/></g></g></g><g fill="#364f6b" fill-opacity="1"><g transform="translate(229.636921, 179.799963)"><g><path d="M 2.359375 0 L 19.359375 0 L 19.359375 -4.5625 L 7.8125 -4.5625 L 7.8125 -8.59375 L 17.78125 -8.59375 L 17.78125 -13.171875 L 7.8125 -13.171875 L 7.8125 -17.140625 L 18.515625 -17.140625 L 18.515625 -21.71875 L 2.359375 -21.71875 Z M 2.359375 0 "/></g></g></g><g fill="#364f6b" fill-opacity="1"><g transform="translate(249.287558, 179.799963)"><g><path d="M 21.71875 0.03125 L 17.296875 -7.84375 C 19.78125 -8.921875 21.1875 -11.1875 21.1875 -14.3125 C 21.1875 -18.671875 18.4375 -21.71875 13.65625 -21.71875 L 2.34375 -21.71875 L 2.34375 0 L 7.75 0 L 7.75 -7.171875 L 11.859375 -7.171875 L 15.484375 0.03125 Z M 7.75 -17.140625 L 12.640625 -17.140625 C 14.859375 -17.140625 15.8125 -16.21875 15.8125 -14.484375 C 15.8125 -12.828125 14.9375 -11.734375 12.640625 -11.734375 L 7.75 -11.734375 Z M 7.75 -17.140625 "/></g></g></g><g fill="#364f6b" fill-opacity="1"><g transform="translate(270.920329, 179.799963)"><g><path d="M 11.90625 -12.4375 L 11.90625 -8.21875 L 16.421875 -8.21875 C 16.171875 -6.234375 15.03125 -4.109375 11.765625 -4.109375 C 7.90625 -4.109375 6.59375 -7.046875 6.59375 -10.875 C 6.59375 -14.859375 8.03125 -17.84375 11.78125 -17.84375 C 14.140625 -17.84375 15.59375 -16.671875 16.25 -14.453125 L 21.109375 -15.90625 C 20.09375 -19.46875 16.9375 -22.3125 11.765625 -22.3125 C 5.015625 -22.3125 1.0625 -18.015625 1.0625 -10.6875 C 1.0625 -3.546875 4.8125 0.578125 11.015625 0.578125 C 13.4375 0.578125 15.796875 -0.203125 17.0625 -2.25 L 17.0625 0 L 21.59375 0 L 21.59375 -12.4375 Z M 11.90625 -12.4375 "/></g></g></g><g fill="#364f6b" fill-opacity="1"><g transform="translate(293.27762, 179.799963)"><g><path d="M 8.21875 0 L 13.65625 0 L 13.65625 -8.4375 L 21.8125 -21.71875 L 15.71875 -21.71875 L 11.0625 -13.171875 L 6.140625 -21.71875 L 0.046875 -21.71875 L 8.21875 -8.4375 Z M 8.21875 0 "/></g></g></g><g fill="#364f6b" fill-opacity="1"><g transform="translate(314.267915, 179.799963)"><g><path d="M 9.828125 0.515625 C 15.265625 0.515625 18.546875 -2.265625 18.546875 -6.953125 C 18.546875 -11.34375 15.296875 -12.96875 11.75 -13.65625 L 9.0625 -14.171875 C 6.9375 -14.5625 6.4375 -15.171875 6.4375 -16.203125 C 6.4375 -17.484375 7.4375 -18 8.828125 -18 C 10.78125 -18 13.34375 -16.96875 14.71875 -15.578125 L 17.53125 -19.390625 C 15.15625 -21.28125 12.15625 -22.28125 9.046875 -22.28125 C 4.546875 -22.28125 1.265625 -20.1875 1.265625 -15.53125 C 1.265625 -11.546875 3.984375 -9.8125 7.1875 -9.1875 L 10.71875 -8.5 C 12.578125 -8.15625 13.1875 -7.578125 13.1875 -6.34375 C 13.1875 -4.640625 11.890625 -4.0625 10.078125 -4.0625 C 7.859375 -4.0625 5.859375 -4.890625 3.796875 -6.8125 L 0.8125 -2.9375 C 2.890625 -0.90625 6.015625 0.515625 9.828125 0.515625 Z M 9.828125 0.515625 "/></g></g></g></svg>