<svg width="1920" height="895" viewBox="0 0 1920 895" fill="none" xmlns="http://www.w3.org/2000/svg">
<g opacity="0.08">
<ellipse cx="4.66019" cy="424.078" rx="4.66019" ry="4.66018" fill="#042320"/>
<ellipse cx="4.66019" cy="377.473" rx="4.66019" ry="4.66018" fill="#042320"/>
<ellipse cx="4.66019" cy="330.871" rx="4.66019" ry="4.66018" fill="#042320"/>
<ellipse cx="4.66019" cy="284.272" rx="4.66019" ry="4.66018" fill="#042320"/>
<ellipse cx="4.66019" cy="237.67" rx="4.66019" ry="4.66018" fill="#042320"/>
<ellipse cx="4.66019" cy="191.068" rx="4.66019" ry="4.66018" fill="#042320"/>
<ellipse cx="4.66019" cy="144.467" rx="4.66019" ry="4.66018" fill="#042320"/>
<ellipse cx="4.66019" cy="97.8633" rx="4.66019" ry="4.66018" fill="#042320"/>
<ellipse cx="4.66019" cy="51.2617" rx="4.66019" ry="4.66018" fill="#042320"/>
<ellipse cx="4.66019" cy="4.66018" rx="4.66019" ry="4.66018" fill="#042320"/>
<ellipse cx="284.272" cy="424.078" rx="4.66019" ry="4.66018" fill="#042320"/>
<ellipse cx="284.272" cy="377.473" rx="4.66019" ry="4.66018" fill="#042320"/>
<ellipse cx="284.272" cy="330.871" rx="4.66019" ry="4.66018" fill="#042320"/>
<ellipse cx="284.272" cy="284.272" rx="4.66019" ry="4.66018" fill="#042320"/>
<ellipse cx="284.272" cy="237.67" rx="4.66019" ry="4.66018" fill="#042320"/>
<ellipse cx="284.272" cy="191.068" rx="4.66019" ry="4.66018" fill="#042320"/>
<ellipse cx="284.272" cy="144.467" rx="4.66019" ry="4.66018" fill="#042320"/>
<ellipse cx="284.272" cy="97.8633" rx="4.66019" ry="4.66018" fill="#042320"/>
<ellipse cx="284.272" cy="51.2617" rx="4.66019" ry="4.66018" fill="#042320"/>
<ellipse cx="284.272" cy="4.66018" rx="4.66019" ry="4.66018" fill="#042320"/>
<ellipse cx="657.086" cy="424.078" rx="4.66019" ry="4.66018" fill="#042320"/>
<ellipse cx="657.086" cy="377.473" rx="4.66019" ry="4.66018" fill="#042320"/>
<ellipse cx="657.086" cy="330.871" rx="4.66019" ry="4.66018" fill="#042320"/>
<ellipse cx="657.087" cy="284.272" rx="4.66019" ry="4.66018" fill="#042320"/>
<ellipse cx="657.087" cy="237.67" rx="4.66019" ry="4.66018" fill="#042320"/>
<ellipse cx="657.086" cy="191.068" rx="4.66019" ry="4.66018" fill="#042320"/>
<ellipse cx="657.086" cy="144.467" rx="4.66019" ry="4.66018" fill="#042320"/>
<ellipse cx="657.086" cy="97.8633" rx="4.66019" ry="4.66018" fill="#042320"/>
<ellipse cx="657.086" cy="51.2617" rx="4.66019" ry="4.66018" fill="#042320"/>
<ellipse cx="657.087" cy="4.66018" rx="4.66019" ry="4.66018" fill="#042320"/>
<ellipse cx="1029.9" cy="424.078" rx="4.66019" ry="4.66018" fill="#042320"/>
<ellipse cx="1029.9" cy="377.473" rx="4.66019" ry="4.66018" fill="#042320"/>
<ellipse cx="1029.9" cy="330.871" rx="4.66019" ry="4.66018" fill="#042320"/>
<ellipse cx="1029.9" cy="284.272" rx="4.66019" ry="4.66018" fill="#042320"/>
<ellipse cx="1029.9" cy="237.67" rx="4.66019" ry="4.66018" fill="#042320"/>
<ellipse cx="1029.9" cy="191.068" rx="4.66019" ry="4.66018" fill="#042320"/>
<ellipse cx="1029.9" cy="144.467" rx="4.66019" ry="4.66018" fill="#042320"/>
<ellipse cx="1029.9" cy="97.8633" rx="4.66019" ry="4.66018" fill="#042320"/>
<ellipse cx="1029.9" cy="51.2617" rx="4.66019" ry="4.66018" fill="#042320"/>
<ellipse cx="1029.9" cy="4.66018" rx="4.66019" ry="4.66018" fill="#042320"/>
<ellipse cx="191.066" cy="424.078" rx="4.66019" ry="4.66018" fill="#042320"/>
<ellipse cx="191.066" cy="377.473" rx="4.66019" ry="4.66018" fill="#042320"/>
<ellipse cx="191.066" cy="330.871" rx="4.66019" ry="4.66018" fill="#042320"/>
<ellipse cx="191.066" cy="284.272" rx="4.66019" ry="4.66018" fill="#042320"/>
<ellipse cx="191.066" cy="237.67" rx="4.66019" ry="4.66018" fill="#042320"/>
<ellipse cx="191.066" cy="191.068" rx="4.66019" ry="4.66018" fill="#042320"/>
<ellipse cx="191.066" cy="144.467" rx="4.66019" ry="4.66018" fill="#042320"/>
<ellipse cx="191.066" cy="97.8633" rx="4.66019" ry="4.66018" fill="#042320"/>
<ellipse cx="191.066" cy="51.2617" rx="4.66019" ry="4.66018" fill="#042320"/>
<ellipse cx="191.066" cy="4.66018" rx="4.66019" ry="4.66018" fill="#042320"/>
<ellipse cx="563.882" cy="424.078" rx="4.66019" ry="4.66018" fill="#042320"/>
<ellipse cx="563.882" cy="377.473" rx="4.66019" ry="4.66018" fill="#042320"/>
<ellipse cx="563.882" cy="330.871" rx="4.66019" ry="4.66018" fill="#042320"/>
<ellipse cx="563.882" cy="284.272" rx="4.66019" ry="4.66018" fill="#042320"/>
<ellipse cx="563.882" cy="237.67" rx="4.66019" ry="4.66018" fill="#042320"/>
<ellipse cx="563.882" cy="191.068" rx="4.66019" ry="4.66018" fill="#042320"/>
<ellipse cx="563.882" cy="144.467" rx="4.66019" ry="4.66018" fill="#042320"/>
<ellipse cx="563.882" cy="97.8633" rx="4.66019" ry="4.66018" fill="#042320"/>
<ellipse cx="563.882" cy="51.2617" rx="4.66019" ry="4.66018" fill="#042320"/>
<ellipse cx="563.882" cy="4.66018" rx="4.66019" ry="4.66018" fill="#042320"/>
<ellipse cx="936.697" cy="424.078" rx="4.66019" ry="4.66018" fill="#042320"/>
<ellipse cx="936.697" cy="377.473" rx="4.66019" ry="4.66018" fill="#042320"/>
<ellipse cx="936.697" cy="330.871" rx="4.66019" ry="4.66018" fill="#042320"/>
<ellipse cx="936.697" cy="284.272" rx="4.66019" ry="4.66018" fill="#042320"/>
<ellipse cx="936.697" cy="237.67" rx="4.66019" ry="4.66018" fill="#042320"/>
<ellipse cx="936.697" cy="191.068" rx="4.66019" ry="4.66018" fill="#042320"/>
<ellipse cx="936.697" cy="144.467" rx="4.66019" ry="4.66018" fill="#042320"/>
<ellipse cx="936.697" cy="97.8633" rx="4.66019" ry="4.66018" fill="#042320"/>
<ellipse cx="936.697" cy="51.2617" rx="4.66019" ry="4.66018" fill="#042320"/>
<ellipse cx="936.697" cy="4.66018" rx="4.66019" ry="4.66018" fill="#042320"/>
<ellipse cx="470.68" cy="424.078" rx="4.66019" ry="4.66018" fill="#042320"/>
<ellipse cx="470.68" cy="377.473" rx="4.66019" ry="4.66018" fill="#042320"/>
<ellipse cx="470.68" cy="330.871" rx="4.66019" ry="4.66018" fill="#042320"/>
<ellipse cx="470.68" cy="284.272" rx="4.66019" ry="4.66018" fill="#042320"/>
<ellipse cx="470.68" cy="237.67" rx="4.66019" ry="4.66018" fill="#042320"/>
<ellipse cx="470.68" cy="191.068" rx="4.66019" ry="4.66018" fill="#042320"/>
<ellipse cx="470.68" cy="144.467" rx="4.66019" ry="4.66018" fill="#042320"/>
<ellipse cx="470.68" cy="97.8633" rx="4.66019" ry="4.66018" fill="#042320"/>
<ellipse cx="470.68" cy="51.2617" rx="4.66019" ry="4.66018" fill="#042320"/>
<ellipse cx="470.68" cy="4.66018" rx="4.66019" ry="4.66018" fill="#042320"/>
<ellipse cx="843.495" cy="424.078" rx="4.66019" ry="4.66018" fill="#042320"/>
<ellipse cx="843.495" cy="377.473" rx="4.66019" ry="4.66018" fill="#042320"/>
<ellipse cx="843.495" cy="330.871" rx="4.66019" ry="4.66018" fill="#042320"/>
<ellipse cx="843.495" cy="284.272" rx="4.66019" ry="4.66018" fill="#042320"/>
<ellipse cx="843.495" cy="237.67" rx="4.66019" ry="4.66018" fill="#042320"/>
<ellipse cx="843.495" cy="191.068" rx="4.66019" ry="4.66018" fill="#042320"/>
<ellipse cx="843.495" cy="144.467" rx="4.66019" ry="4.66018" fill="#042320"/>
<ellipse cx="843.495" cy="97.8633" rx="4.66019" ry="4.66018" fill="#042320"/>
<ellipse cx="843.495" cy="51.2617" rx="4.66019" ry="4.66018" fill="#042320"/>
<ellipse cx="843.495" cy="4.66018" rx="4.66019" ry="4.66018" fill="#042320"/>
<ellipse cx="97.8643" cy="424.078" rx="4.66019" ry="4.66018" fill="#042320"/>
<ellipse cx="97.8643" cy="377.473" rx="4.66019" ry="4.66018" fill="#042320"/>
<ellipse cx="97.8643" cy="330.871" rx="4.66019" ry="4.66018" fill="#042320"/>
<ellipse cx="97.8643" cy="284.272" rx="4.66019" ry="4.66018" fill="#042320"/>
<ellipse cx="97.8643" cy="237.67" rx="4.66019" ry="4.66018" fill="#042320"/>
<ellipse cx="97.8643" cy="191.068" rx="4.66019" ry="4.66018" fill="#042320"/>
<ellipse cx="97.8643" cy="144.467" rx="4.66019" ry="4.66018" fill="#042320"/>
<ellipse cx="97.8643" cy="97.8633" rx="4.66019" ry="4.66018" fill="#042320"/>
<ellipse cx="97.8643" cy="51.2617" rx="4.66019" ry="4.66018" fill="#042320"/>
<ellipse cx="97.8643" cy="4.66018" rx="4.66019" ry="4.66018" fill="#042320"/>
<ellipse cx="377.476" cy="424.078" rx="4.66019" ry="4.66018" fill="#042320"/>
<ellipse cx="377.476" cy="377.473" rx="4.66019" ry="4.66018" fill="#042320"/>
<ellipse cx="377.476" cy="330.871" rx="4.66019" ry="4.66018" fill="#042320"/>
<ellipse cx="377.476" cy="284.272" rx="4.66019" ry="4.66018" fill="#042320"/>
<ellipse cx="377.476" cy="237.67" rx="4.66019" ry="4.66018" fill="#042320"/>
<ellipse cx="377.476" cy="191.068" rx="4.66019" ry="4.66018" fill="#042320"/>
<ellipse cx="377.476" cy="144.467" rx="4.66019" ry="4.66018" fill="#042320"/>
<ellipse cx="377.476" cy="97.8633" rx="4.66019" ry="4.66018" fill="#042320"/>
<ellipse cx="377.476" cy="51.2617" rx="4.66019" ry="4.66018" fill="#042320"/>
<ellipse cx="377.476" cy="4.66018" rx="4.66019" ry="4.66018" fill="#042320"/>
<ellipse cx="750.291" cy="424.078" rx="4.66019" ry="4.66018" fill="#042320"/>
<ellipse cx="750.291" cy="377.473" rx="4.66019" ry="4.66018" fill="#042320"/>
<ellipse cx="750.291" cy="330.871" rx="4.66019" ry="4.66018" fill="#042320"/>
<ellipse cx="750.29" cy="284.272" rx="4.66019" ry="4.66018" fill="#042320"/>
<ellipse cx="750.29" cy="237.67" rx="4.66019" ry="4.66018" fill="#042320"/>
<ellipse cx="750.291" cy="191.068" rx="4.66019" ry="4.66018" fill="#042320"/>
<ellipse cx="750.291" cy="144.467" rx="4.66019" ry="4.66018" fill="#042320"/>
<ellipse cx="750.291" cy="97.8633" rx="4.66019" ry="4.66018" fill="#042320"/>
<ellipse cx="750.291" cy="51.2617" rx="4.66019" ry="4.66018" fill="#042320"/>
<ellipse cx="750.29" cy="4.66018" rx="4.66019" ry="4.66018" fill="#042320"/>
<ellipse cx="51.2618" cy="424.078" rx="4.66019" ry="4.66018" fill="#042320"/>
<ellipse cx="51.2618" cy="377.473" rx="4.66019" ry="4.66018" fill="#042320"/>
<ellipse cx="51.2618" cy="330.871" rx="4.66019" ry="4.66018" fill="#042320"/>
<ellipse cx="51.2618" cy="284.272" rx="4.66019" ry="4.66018" fill="#042320"/>
<ellipse cx="51.2618" cy="237.67" rx="4.66019" ry="4.66018" fill="#042320"/>
<ellipse cx="51.2618" cy="191.068" rx="4.66019" ry="4.66018" fill="#042320"/>
<ellipse cx="51.2618" cy="144.467" rx="4.66019" ry="4.66018" fill="#042320"/>
<ellipse cx="51.2618" cy="97.8633" rx="4.66019" ry="4.66018" fill="#042320"/>
<ellipse cx="51.2618" cy="51.2617" rx="4.66019" ry="4.66018" fill="#042320"/>
<ellipse cx="51.2618" cy="4.66018" rx="4.66019" ry="4.66018" fill="#042320"/>
<ellipse cx="330.874" cy="424.078" rx="4.66019" ry="4.66018" fill="#042320"/>
<ellipse cx="330.874" cy="377.473" rx="4.66019" ry="4.66018" fill="#042320"/>
<ellipse cx="330.874" cy="330.871" rx="4.66019" ry="4.66018" fill="#042320"/>
<ellipse cx="330.874" cy="284.272" rx="4.66019" ry="4.66018" fill="#042320"/>
<ellipse cx="330.874" cy="237.67" rx="4.66019" ry="4.66018" fill="#042320"/>
<ellipse cx="330.874" cy="191.068" rx="4.66019" ry="4.66018" fill="#042320"/>
<ellipse cx="330.874" cy="144.467" rx="4.66019" ry="4.66018" fill="#042320"/>
<ellipse cx="330.874" cy="97.8633" rx="4.66019" ry="4.66018" fill="#042320"/>
<ellipse cx="330.874" cy="51.2617" rx="4.66019" ry="4.66018" fill="#042320"/>
<ellipse cx="330.874" cy="4.66018" rx="4.66019" ry="4.66018" fill="#042320"/>
<ellipse cx="703.69" cy="424.078" rx="4.66019" ry="4.66018" fill="#042320"/>
<ellipse cx="703.69" cy="377.473" rx="4.66019" ry="4.66018" fill="#042320"/>
<ellipse cx="703.69" cy="330.871" rx="4.66019" ry="4.66018" fill="#042320"/>
<ellipse cx="703.69" cy="284.272" rx="4.66019" ry="4.66018" fill="#042320"/>
<ellipse cx="703.69" cy="237.67" rx="4.66019" ry="4.66018" fill="#042320"/>
<ellipse cx="703.69" cy="191.068" rx="4.66019" ry="4.66018" fill="#042320"/>
<ellipse cx="703.69" cy="144.467" rx="4.66019" ry="4.66018" fill="#042320"/>
<ellipse cx="703.69" cy="97.8633" rx="4.66019" ry="4.66018" fill="#042320"/>
<ellipse cx="703.69" cy="51.2617" rx="4.66019" ry="4.66018" fill="#042320"/>
<ellipse cx="703.69" cy="4.66018" rx="4.66019" ry="4.66018" fill="#042320"/>
<ellipse cx="1076.5" cy="424.078" rx="4.66019" ry="4.66018" fill="#042320"/>
<ellipse cx="1076.5" cy="377.473" rx="4.66019" ry="4.66018" fill="#042320"/>
<ellipse cx="1076.5" cy="330.871" rx="4.66019" ry="4.66018" fill="#042320"/>
<ellipse cx="1076.5" cy="284.272" rx="4.66019" ry="4.66018" fill="#042320"/>
<ellipse cx="1076.5" cy="237.67" rx="4.66019" ry="4.66018" fill="#042320"/>
<ellipse cx="1076.5" cy="191.068" rx="4.66019" ry="4.66018" fill="#042320"/>
<ellipse cx="1076.5" cy="144.467" rx="4.66019" ry="4.66018" fill="#042320"/>
<ellipse cx="1076.5" cy="97.8633" rx="4.66019" ry="4.66018" fill="#042320"/>
<ellipse cx="1076.5" cy="51.2617" rx="4.66019" ry="4.66018" fill="#042320"/>
<ellipse cx="1076.5" cy="4.66018" rx="4.66019" ry="4.66018" fill="#042320"/>
<ellipse cx="237.67" cy="424.078" rx="4.66019" ry="4.66018" fill="#042320"/>
<ellipse cx="237.67" cy="377.473" rx="4.66019" ry="4.66018" fill="#042320"/>
<ellipse cx="237.67" cy="330.871" rx="4.66019" ry="4.66018" fill="#042320"/>
<ellipse cx="237.67" cy="284.272" rx="4.66019" ry="4.66018" fill="#042320"/>
<ellipse cx="237.67" cy="237.67" rx="4.66019" ry="4.66018" fill="#042320"/>
<ellipse cx="237.67" cy="191.068" rx="4.66019" ry="4.66018" fill="#042320"/>
<ellipse cx="237.67" cy="144.467" rx="4.66019" ry="4.66018" fill="#042320"/>
<ellipse cx="237.67" cy="97.8633" rx="4.66019" ry="4.66018" fill="#042320"/>
<ellipse cx="237.67" cy="51.2617" rx="4.66019" ry="4.66018" fill="#042320"/>
<ellipse cx="237.67" cy="4.66018" rx="4.66019" ry="4.66018" fill="#042320"/>
<ellipse cx="610.485" cy="424.078" rx="4.66019" ry="4.66018" fill="#042320"/>
<ellipse cx="610.485" cy="377.473" rx="4.66019" ry="4.66018" fill="#042320"/>
<ellipse cx="610.485" cy="330.871" rx="4.66019" ry="4.66018" fill="#042320"/>
<ellipse cx="610.484" cy="284.272" rx="4.66019" ry="4.66018" fill="#042320"/>
<ellipse cx="610.484" cy="237.67" rx="4.66019" ry="4.66018" fill="#042320"/>
<ellipse cx="610.485" cy="191.068" rx="4.66019" ry="4.66018" fill="#042320"/>
<ellipse cx="610.485" cy="144.467" rx="4.66019" ry="4.66018" fill="#042320"/>
<ellipse cx="610.485" cy="97.8633" rx="4.66019" ry="4.66018" fill="#042320"/>
<ellipse cx="610.485" cy="51.2617" rx="4.66019" ry="4.66018" fill="#042320"/>
<ellipse cx="610.484" cy="4.66018" rx="4.66019" ry="4.66018" fill="#042320"/>
<ellipse cx="983.301" cy="424.078" rx="4.66019" ry="4.66018" fill="#042320"/>
<ellipse cx="983.301" cy="377.473" rx="4.66019" ry="4.66018" fill="#042320"/>
<ellipse cx="983.301" cy="330.871" rx="4.66019" ry="4.66018" fill="#042320"/>
<ellipse cx="983.301" cy="284.272" rx="4.66019" ry="4.66018" fill="#042320"/>
<ellipse cx="983.301" cy="237.67" rx="4.66019" ry="4.66018" fill="#042320"/>
<ellipse cx="983.301" cy="191.068" rx="4.66019" ry="4.66018" fill="#042320"/>
<ellipse cx="983.301" cy="144.467" rx="4.66019" ry="4.66018" fill="#042320"/>
<ellipse cx="983.301" cy="97.8633" rx="4.66019" ry="4.66018" fill="#042320"/>
<ellipse cx="983.301" cy="51.2617" rx="4.66019" ry="4.66018" fill="#042320"/>
<ellipse cx="983.301" cy="4.66018" rx="4.66019" ry="4.66018" fill="#042320"/>
<ellipse cx="517.281" cy="424.078" rx="4.66019" ry="4.66018" fill="#042320"/>
<ellipse cx="517.281" cy="377.473" rx="4.66019" ry="4.66018" fill="#042320"/>
<ellipse cx="517.281" cy="330.871" rx="4.66019" ry="4.66018" fill="#042320"/>
<ellipse cx="517.281" cy="284.272" rx="4.66019" ry="4.66018" fill="#042320"/>
<ellipse cx="517.281" cy="237.67" rx="4.66019" ry="4.66018" fill="#042320"/>
<ellipse cx="517.281" cy="191.068" rx="4.66019" ry="4.66018" fill="#042320"/>
<ellipse cx="517.281" cy="144.467" rx="4.66019" ry="4.66018" fill="#042320"/>
<ellipse cx="517.281" cy="97.8633" rx="4.66019" ry="4.66018" fill="#042320"/>
<ellipse cx="517.281" cy="51.2617" rx="4.66019" ry="4.66018" fill="#042320"/>
<ellipse cx="517.281" cy="4.66018" rx="4.66019" ry="4.66018" fill="#042320"/>
<ellipse cx="890.096" cy="424.078" rx="4.66019" ry="4.66018" fill="#042320"/>
<ellipse cx="890.096" cy="377.473" rx="4.66019" ry="4.66018" fill="#042320"/>
<ellipse cx="890.096" cy="330.871" rx="4.66019" ry="4.66018" fill="#042320"/>
<ellipse cx="890.096" cy="284.272" rx="4.66019" ry="4.66018" fill="#042320"/>
<ellipse cx="890.096" cy="237.67" rx="4.66019" ry="4.66018" fill="#042320"/>
<ellipse cx="890.096" cy="191.068" rx="4.66019" ry="4.66018" fill="#042320"/>
<ellipse cx="890.096" cy="144.467" rx="4.66019" ry="4.66018" fill="#042320"/>
<ellipse cx="890.096" cy="97.8633" rx="4.66019" ry="4.66018" fill="#042320"/>
<ellipse cx="890.096" cy="51.2617" rx="4.66019" ry="4.66018" fill="#042320"/>
<ellipse cx="890.096" cy="4.66018" rx="4.66019" ry="4.66018" fill="#042320"/>
<ellipse cx="144.466" cy="424.078" rx="4.66019" ry="4.66018" fill="#042320"/>
<ellipse cx="144.466" cy="377.473" rx="4.66019" ry="4.66018" fill="#042320"/>
<ellipse cx="144.466" cy="330.871" rx="4.66019" ry="4.66018" fill="#042320"/>
<ellipse cx="144.466" cy="284.272" rx="4.66019" ry="4.66018" fill="#042320"/>
<ellipse cx="144.466" cy="237.67" rx="4.66019" ry="4.66018" fill="#042320"/>
<ellipse cx="144.466" cy="191.068" rx="4.66019" ry="4.66018" fill="#042320"/>
<ellipse cx="144.466" cy="144.467" rx="4.66019" ry="4.66018" fill="#042320"/>
<ellipse cx="144.466" cy="97.8633" rx="4.66019" ry="4.66018" fill="#042320"/>
<ellipse cx="144.466" cy="51.2617" rx="4.66019" ry="4.66018" fill="#042320"/>
<ellipse cx="144.466" cy="4.66018" rx="4.66019" ry="4.66018" fill="#042320"/>
<ellipse cx="424.076" cy="424.078" rx="4.66019" ry="4.66018" fill="#042320"/>
<ellipse cx="424.076" cy="377.473" rx="4.66019" ry="4.66018" fill="#042320"/>
<ellipse cx="424.076" cy="330.871" rx="4.66019" ry="4.66018" fill="#042320"/>
<ellipse cx="424.076" cy="284.272" rx="4.66019" ry="4.66018" fill="#042320"/>
<ellipse cx="424.076" cy="237.67" rx="4.66019" ry="4.66018" fill="#042320"/>
<ellipse cx="424.076" cy="191.068" rx="4.66019" ry="4.66018" fill="#042320"/>
<ellipse cx="424.076" cy="144.467" rx="4.66019" ry="4.66018" fill="#042320"/>
<ellipse cx="424.076" cy="97.8633" rx="4.66019" ry="4.66018" fill="#042320"/>
<ellipse cx="424.076" cy="51.2617" rx="4.66019" ry="4.66018" fill="#042320"/>
<ellipse cx="424.076" cy="4.66018" rx="4.66019" ry="4.66018" fill="#042320"/>
<ellipse cx="796.892" cy="424.078" rx="4.66019" ry="4.66018" fill="#042320"/>
<ellipse cx="796.892" cy="377.473" rx="4.66019" ry="4.66018" fill="#042320"/>
<ellipse cx="796.892" cy="330.871" rx="4.66019" ry="4.66018" fill="#042320"/>
<ellipse cx="796.892" cy="284.272" rx="4.66019" ry="4.66018" fill="#042320"/>
<ellipse cx="796.892" cy="237.67" rx="4.66019" ry="4.66018" fill="#042320"/>
<ellipse cx="796.892" cy="191.068" rx="4.66019" ry="4.66018" fill="#042320"/>
<ellipse cx="796.892" cy="144.467" rx="4.66019" ry="4.66018" fill="#042320"/>
<ellipse cx="796.892" cy="97.8633" rx="4.66019" ry="4.66018" fill="#042320"/>
<ellipse cx="796.892" cy="51.2617" rx="4.66019" ry="4.66018" fill="#042320"/>
<ellipse cx="796.892" cy="4.66018" rx="4.66019" ry="4.66018" fill="#042320"/>
<ellipse cx="1123.11" cy="424.078" rx="4.66019" ry="4.66018" fill="#042320"/>
<ellipse cx="1123.11" cy="377.473" rx="4.66019" ry="4.66018" fill="#042320"/>
<ellipse cx="1123.11" cy="330.871" rx="4.66019" ry="4.66018" fill="#042320"/>
<ellipse cx="1123.11" cy="284.272" rx="4.66019" ry="4.66018" fill="#042320"/>
<ellipse cx="1123.11" cy="237.67" rx="4.66019" ry="4.66018" fill="#042320"/>
<ellipse cx="1123.11" cy="191.068" rx="4.66019" ry="4.66018" fill="#042320"/>
<ellipse cx="1123.11" cy="144.467" rx="4.66019" ry="4.66018" fill="#042320"/>
<ellipse cx="1123.11" cy="97.8633" rx="4.66019" ry="4.66018" fill="#042320"/>
<ellipse cx="1123.11" cy="51.2617" rx="4.66019" ry="4.66018" fill="#042320"/>
<ellipse cx="1123.11" cy="4.66018" rx="4.66019" ry="4.66018" fill="#042320"/>
<ellipse cx="1169.71" cy="424.078" rx="4.66019" ry="4.66018" fill="#042320"/>
<ellipse cx="1169.71" cy="377.473" rx="4.66019" ry="4.66018" fill="#042320"/>
<ellipse cx="1169.71" cy="330.871" rx="4.66019" ry="4.66018" fill="#042320"/>
<ellipse cx="1169.71" cy="284.272" rx="4.66019" ry="4.66018" fill="#042320"/>
<ellipse cx="1169.71" cy="237.67" rx="4.66019" ry="4.66018" fill="#042320"/>
<ellipse cx="1169.71" cy="191.068" rx="4.66019" ry="4.66018" fill="#042320"/>
<ellipse cx="1169.71" cy="144.467" rx="4.66019" ry="4.66018" fill="#042320"/>
<ellipse cx="1169.71" cy="97.8633" rx="4.66019" ry="4.66018" fill="#042320"/>
<ellipse cx="1169.71" cy="51.2617" rx="4.66019" ry="4.66018" fill="#042320"/>
<ellipse cx="1169.71" cy="4.66018" rx="4.66019" ry="4.66018" fill="#042320"/>
<ellipse cx="1449.32" cy="424.078" rx="4.66019" ry="4.66018" fill="#042320"/>
<ellipse cx="1449.32" cy="377.473" rx="4.66019" ry="4.66018" fill="#042320"/>
<ellipse cx="1449.32" cy="330.871" rx="4.66019" ry="4.66018" fill="#042320"/>
<ellipse cx="1449.32" cy="284.272" rx="4.66019" ry="4.66018" fill="#042320"/>
<ellipse cx="1449.32" cy="237.67" rx="4.66019" ry="4.66018" fill="#042320"/>
<ellipse cx="1449.32" cy="191.068" rx="4.66019" ry="4.66018" fill="#042320"/>
<ellipse cx="1449.32" cy="144.467" rx="4.66019" ry="4.66018" fill="#042320"/>
<ellipse cx="1449.32" cy="97.8633" rx="4.66019" ry="4.66018" fill="#042320"/>
<ellipse cx="1449.32" cy="51.2617" rx="4.66019" ry="4.66018" fill="#042320"/>
<ellipse cx="1449.32" cy="4.66018" rx="4.66019" ry="4.66018" fill="#042320"/>
<ellipse cx="1822.13" cy="424.078" rx="4.66019" ry="4.66018" fill="#042320"/>
<ellipse cx="1822.13" cy="377.473" rx="4.66019" ry="4.66018" fill="#042320"/>
<ellipse cx="1822.13" cy="330.871" rx="4.66019" ry="4.66018" fill="#042320"/>
<ellipse cx="1822.14" cy="284.272" rx="4.66019" ry="4.66018" fill="#042320"/>
<ellipse cx="1822.14" cy="237.67" rx="4.66019" ry="4.66018" fill="#042320"/>
<ellipse cx="1822.13" cy="191.068" rx="4.66019" ry="4.66018" fill="#042320"/>
<ellipse cx="1822.13" cy="144.467" rx="4.66019" ry="4.66018" fill="#042320"/>
<ellipse cx="1822.13" cy="97.8633" rx="4.66019" ry="4.66018" fill="#042320"/>
<ellipse cx="1822.13" cy="51.2617" rx="4.66019" ry="4.66018" fill="#042320"/>
<ellipse cx="1822.14" cy="4.66018" rx="4.66019" ry="4.66018" fill="#042320"/>
<ellipse cx="1356.12" cy="424.078" rx="4.66019" ry="4.66018" fill="#042320"/>
<ellipse cx="1356.12" cy="377.473" rx="4.66019" ry="4.66018" fill="#042320"/>
<ellipse cx="1356.12" cy="330.871" rx="4.66019" ry="4.66018" fill="#042320"/>
<ellipse cx="1356.12" cy="284.272" rx="4.66019" ry="4.66018" fill="#042320"/>
<ellipse cx="1356.12" cy="237.67" rx="4.66019" ry="4.66018" fill="#042320"/>
<ellipse cx="1356.12" cy="191.068" rx="4.66019" ry="4.66018" fill="#042320"/>
<ellipse cx="1356.12" cy="144.467" rx="4.66019" ry="4.66018" fill="#042320"/>
<ellipse cx="1356.12" cy="97.8633" rx="4.66019" ry="4.66018" fill="#042320"/>
<ellipse cx="1356.12" cy="51.2617" rx="4.66019" ry="4.66018" fill="#042320"/>
<ellipse cx="1356.12" cy="4.66018" rx="4.66019" ry="4.66018" fill="#042320"/>
<ellipse cx="1728.93" cy="424.078" rx="4.66019" ry="4.66018" fill="#042320"/>
<ellipse cx="1728.93" cy="377.473" rx="4.66019" ry="4.66018" fill="#042320"/>
<ellipse cx="1728.93" cy="330.871" rx="4.66019" ry="4.66018" fill="#042320"/>
<ellipse cx="1728.93" cy="284.272" rx="4.66019" ry="4.66018" fill="#042320"/>
<ellipse cx="1728.93" cy="237.67" rx="4.66019" ry="4.66018" fill="#042320"/>
<ellipse cx="1728.93" cy="191.068" rx="4.66019" ry="4.66018" fill="#042320"/>
<ellipse cx="1728.93" cy="144.467" rx="4.66019" ry="4.66018" fill="#042320"/>
<ellipse cx="1728.93" cy="97.8633" rx="4.66019" ry="4.66018" fill="#042320"/>
<ellipse cx="1728.93" cy="51.2617" rx="4.66019" ry="4.66018" fill="#042320"/>
<ellipse cx="1728.93" cy="4.66018" rx="4.66019" ry="4.66018" fill="#042320"/>
<ellipse cx="1635.73" cy="424.078" rx="4.66019" ry="4.66018" fill="#042320"/>
<ellipse cx="1635.73" cy="377.473" rx="4.66019" ry="4.66018" fill="#042320"/>
<ellipse cx="1635.73" cy="330.871" rx="4.66019" ry="4.66018" fill="#042320"/>
<ellipse cx="1635.73" cy="284.272" rx="4.66019" ry="4.66018" fill="#042320"/>
<ellipse cx="1635.73" cy="237.67" rx="4.66019" ry="4.66018" fill="#042320"/>
<ellipse cx="1635.73" cy="191.068" rx="4.66019" ry="4.66018" fill="#042320"/>
<ellipse cx="1635.73" cy="144.467" rx="4.66019" ry="4.66018" fill="#042320"/>
<ellipse cx="1635.73" cy="97.8633" rx="4.66019" ry="4.66018" fill="#042320"/>
<ellipse cx="1635.73" cy="51.2617" rx="4.66019" ry="4.66018" fill="#042320"/>
<ellipse cx="1635.73" cy="4.66018" rx="4.66019" ry="4.66018" fill="#042320"/>
<ellipse cx="1262.91" cy="424.078" rx="4.66019" ry="4.66018" fill="#042320"/>
<ellipse cx="1262.91" cy="377.473" rx="4.66019" ry="4.66018" fill="#042320"/>
<ellipse cx="1262.91" cy="330.871" rx="4.66019" ry="4.66018" fill="#042320"/>
<ellipse cx="1262.91" cy="284.272" rx="4.66019" ry="4.66018" fill="#042320"/>
<ellipse cx="1262.91" cy="237.67" rx="4.66019" ry="4.66018" fill="#042320"/>
<ellipse cx="1262.91" cy="191.068" rx="4.66019" ry="4.66018" fill="#042320"/>
<ellipse cx="1262.91" cy="144.467" rx="4.66019" ry="4.66018" fill="#042320"/>
<ellipse cx="1262.91" cy="97.8633" rx="4.66019" ry="4.66018" fill="#042320"/>
<ellipse cx="1262.91" cy="51.2617" rx="4.66019" ry="4.66018" fill="#042320"/>
<ellipse cx="1262.91" cy="4.66018" rx="4.66019" ry="4.66018" fill="#042320"/>
<ellipse cx="1542.52" cy="424.078" rx="4.66019" ry="4.66018" fill="#042320"/>
<ellipse cx="1542.52" cy="377.473" rx="4.66019" ry="4.66018" fill="#042320"/>
<ellipse cx="1542.52" cy="330.871" rx="4.66019" ry="4.66018" fill="#042320"/>
<ellipse cx="1542.52" cy="284.272" rx="4.66019" ry="4.66018" fill="#042320"/>
<ellipse cx="1542.52" cy="237.67" rx="4.66019" ry="4.66018" fill="#042320"/>
<ellipse cx="1542.52" cy="191.068" rx="4.66019" ry="4.66018" fill="#042320"/>
<ellipse cx="1542.52" cy="144.467" rx="4.66019" ry="4.66018" fill="#042320"/>
<ellipse cx="1542.52" cy="97.8633" rx="4.66019" ry="4.66018" fill="#042320"/>
<ellipse cx="1542.52" cy="51.2617" rx="4.66019" ry="4.66018" fill="#042320"/>
<ellipse cx="1542.52" cy="4.66018" rx="4.66019" ry="4.66018" fill="#042320"/>
<ellipse cx="1915.34" cy="424.078" rx="4.66019" ry="4.66018" fill="#042320"/>
<ellipse cx="1915.34" cy="377.473" rx="4.66019" ry="4.66018" fill="#042320"/>
<ellipse cx="1915.34" cy="330.871" rx="4.66019" ry="4.66018" fill="#042320"/>
<ellipse cx="1915.34" cy="284.272" rx="4.66019" ry="4.66018" fill="#042320"/>
<ellipse cx="1915.34" cy="237.67" rx="4.66019" ry="4.66018" fill="#042320"/>
<ellipse cx="1915.34" cy="191.068" rx="4.66019" ry="4.66018" fill="#042320"/>
<ellipse cx="1915.34" cy="144.467" rx="4.66019" ry="4.66018" fill="#042320"/>
<ellipse cx="1915.34" cy="97.8633" rx="4.66019" ry="4.66018" fill="#042320"/>
<ellipse cx="1915.34" cy="51.2617" rx="4.66019" ry="4.66018" fill="#042320"/>
<ellipse cx="1915.34" cy="4.66018" rx="4.66019" ry="4.66018" fill="#042320"/>
<ellipse cx="1216.31" cy="424.078" rx="4.66019" ry="4.66018" fill="#042320"/>
<ellipse cx="1216.31" cy="377.473" rx="4.66019" ry="4.66018" fill="#042320"/>
<ellipse cx="1216.31" cy="330.871" rx="4.66019" ry="4.66018" fill="#042320"/>
<ellipse cx="1216.31" cy="284.272" rx="4.66019" ry="4.66018" fill="#042320"/>
<ellipse cx="1216.31" cy="237.67" rx="4.66019" ry="4.66018" fill="#042320"/>
<ellipse cx="1216.31" cy="191.068" rx="4.66019" ry="4.66018" fill="#042320"/>
<ellipse cx="1216.31" cy="144.467" rx="4.66019" ry="4.66018" fill="#042320"/>
<ellipse cx="1216.31" cy="97.8633" rx="4.66019" ry="4.66018" fill="#042320"/>
<ellipse cx="1216.31" cy="51.2617" rx="4.66019" ry="4.66018" fill="#042320"/>
<ellipse cx="1216.31" cy="4.66018" rx="4.66019" ry="4.66018" fill="#042320"/>
<ellipse cx="1495.92" cy="424.078" rx="4.66019" ry="4.66018" fill="#042320"/>
<ellipse cx="1495.92" cy="377.473" rx="4.66019" ry="4.66018" fill="#042320"/>
<ellipse cx="1495.92" cy="330.871" rx="4.66019" ry="4.66018" fill="#042320"/>
<ellipse cx="1495.92" cy="284.272" rx="4.66019" ry="4.66018" fill="#042320"/>
<ellipse cx="1495.92" cy="237.67" rx="4.66019" ry="4.66018" fill="#042320"/>
<ellipse cx="1495.92" cy="191.068" rx="4.66019" ry="4.66018" fill="#042320"/>
<ellipse cx="1495.92" cy="144.467" rx="4.66019" ry="4.66018" fill="#042320"/>
<ellipse cx="1495.92" cy="97.8633" rx="4.66019" ry="4.66018" fill="#042320"/>
<ellipse cx="1495.92" cy="51.2617" rx="4.66019" ry="4.66018" fill="#042320"/>
<ellipse cx="1495.92" cy="4.66018" rx="4.66019" ry="4.66018" fill="#042320"/>
<ellipse cx="1868.74" cy="424.078" rx="4.66019" ry="4.66018" fill="#042320"/>
<ellipse cx="1868.74" cy="377.473" rx="4.66019" ry="4.66018" fill="#042320"/>
<ellipse cx="1868.74" cy="330.871" rx="4.66019" ry="4.66018" fill="#042320"/>
<ellipse cx="1868.74" cy="284.272" rx="4.66019" ry="4.66018" fill="#042320"/>
<ellipse cx="1868.74" cy="237.67" rx="4.66019" ry="4.66018" fill="#042320"/>
<ellipse cx="1868.74" cy="191.068" rx="4.66019" ry="4.66018" fill="#042320"/>
<ellipse cx="1868.74" cy="144.467" rx="4.66019" ry="4.66018" fill="#042320"/>
<ellipse cx="1868.74" cy="97.8633" rx="4.66019" ry="4.66018" fill="#042320"/>
<ellipse cx="1868.74" cy="51.2617" rx="4.66019" ry="4.66018" fill="#042320"/>
<ellipse cx="1868.74" cy="4.66018" rx="4.66019" ry="4.66018" fill="#042320"/>
<ellipse cx="1402.72" cy="424.078" rx="4.66019" ry="4.66018" fill="#042320"/>
<ellipse cx="1402.72" cy="377.473" rx="4.66019" ry="4.66018" fill="#042320"/>
<ellipse cx="1402.72" cy="330.871" rx="4.66019" ry="4.66018" fill="#042320"/>
<ellipse cx="1402.72" cy="284.272" rx="4.66019" ry="4.66018" fill="#042320"/>
<ellipse cx="1402.72" cy="237.67" rx="4.66019" ry="4.66018" fill="#042320"/>
<ellipse cx="1402.72" cy="191.068" rx="4.66019" ry="4.66018" fill="#042320"/>
<ellipse cx="1402.72" cy="144.467" rx="4.66019" ry="4.66018" fill="#042320"/>
<ellipse cx="1402.72" cy="97.8633" rx="4.66019" ry="4.66018" fill="#042320"/>
<ellipse cx="1402.72" cy="51.2617" rx="4.66019" ry="4.66018" fill="#042320"/>
<ellipse cx="1402.72" cy="4.66018" rx="4.66019" ry="4.66018" fill="#042320"/>
<ellipse cx="1775.53" cy="424.078" rx="4.66019" ry="4.66018" fill="#042320"/>
<ellipse cx="1775.53" cy="377.473" rx="4.66019" ry="4.66018" fill="#042320"/>
<ellipse cx="1775.53" cy="330.871" rx="4.66019" ry="4.66018" fill="#042320"/>
<ellipse cx="1775.53" cy="284.272" rx="4.66019" ry="4.66018" fill="#042320"/>
<ellipse cx="1775.53" cy="237.67" rx="4.66019" ry="4.66018" fill="#042320"/>
<ellipse cx="1775.53" cy="191.068" rx="4.66019" ry="4.66018" fill="#042320"/>
<ellipse cx="1775.53" cy="144.467" rx="4.66019" ry="4.66018" fill="#042320"/>
<ellipse cx="1775.53" cy="97.8633" rx="4.66019" ry="4.66018" fill="#042320"/>
<ellipse cx="1775.53" cy="51.2617" rx="4.66019" ry="4.66018" fill="#042320"/>
<ellipse cx="1775.53" cy="4.66018" rx="4.66019" ry="4.66018" fill="#042320"/>
<ellipse cx="1682.33" cy="424.078" rx="4.66019" ry="4.66018" fill="#042320"/>
<ellipse cx="1682.33" cy="377.473" rx="4.66019" ry="4.66018" fill="#042320"/>
<ellipse cx="1682.33" cy="330.871" rx="4.66019" ry="4.66018" fill="#042320"/>
<ellipse cx="1682.33" cy="284.272" rx="4.66019" ry="4.66018" fill="#042320"/>
<ellipse cx="1682.33" cy="237.67" rx="4.66019" ry="4.66018" fill="#042320"/>
<ellipse cx="1682.33" cy="191.068" rx="4.66019" ry="4.66018" fill="#042320"/>
<ellipse cx="1682.33" cy="144.467" rx="4.66019" ry="4.66018" fill="#042320"/>
<ellipse cx="1682.33" cy="97.8633" rx="4.66019" ry="4.66018" fill="#042320"/>
<ellipse cx="1682.33" cy="51.2617" rx="4.66019" ry="4.66018" fill="#042320"/>
<ellipse cx="1682.33" cy="4.66018" rx="4.66019" ry="4.66018" fill="#042320"/>
<ellipse cx="1309.51" cy="424.078" rx="4.66019" ry="4.66018" fill="#042320"/>
<ellipse cx="1309.51" cy="377.473" rx="4.66019" ry="4.66018" fill="#042320"/>
<ellipse cx="1309.51" cy="330.871" rx="4.66019" ry="4.66018" fill="#042320"/>
<ellipse cx="1309.51" cy="284.272" rx="4.66019" ry="4.66018" fill="#042320"/>
<ellipse cx="1309.51" cy="237.67" rx="4.66019" ry="4.66018" fill="#042320"/>
<ellipse cx="1309.51" cy="191.068" rx="4.66019" ry="4.66018" fill="#042320"/>
<ellipse cx="1309.51" cy="144.467" rx="4.66019" ry="4.66018" fill="#042320"/>
<ellipse cx="1309.51" cy="97.8633" rx="4.66019" ry="4.66018" fill="#042320"/>
<ellipse cx="1309.51" cy="51.2617" rx="4.66019" ry="4.66018" fill="#042320"/>
<ellipse cx="1309.51" cy="4.66018" rx="4.66019" ry="4.66018" fill="#042320"/>
<ellipse cx="1589.12" cy="424.078" rx="4.66019" ry="4.66018" fill="#042320"/>
<ellipse cx="1589.12" cy="377.473" rx="4.66019" ry="4.66018" fill="#042320"/>
<ellipse cx="1589.12" cy="330.871" rx="4.66019" ry="4.66018" fill="#042320"/>
<ellipse cx="1589.12" cy="284.272" rx="4.66019" ry="4.66018" fill="#042320"/>
<ellipse cx="1589.12" cy="237.67" rx="4.66019" ry="4.66018" fill="#042320"/>
<ellipse cx="1589.12" cy="191.068" rx="4.66019" ry="4.66018" fill="#042320"/>
<ellipse cx="1589.12" cy="144.467" rx="4.66019" ry="4.66018" fill="#042320"/>
<ellipse cx="1589.12" cy="97.8633" rx="4.66019" ry="4.66018" fill="#042320"/>
<ellipse cx="1589.12" cy="51.2617" rx="4.66019" ry="4.66018" fill="#042320"/>
<ellipse cx="1589.12" cy="4.66018" rx="4.66019" ry="4.66018" fill="#042320"/>
<ellipse cx="4.66019" cy="890.098" rx="4.66019" ry="4.66018" fill="#042320"/>
<ellipse cx="4.66019" cy="843.492" rx="4.66019" ry="4.66018" fill="#042320"/>
<ellipse cx="4.66019" cy="796.891" rx="4.66019" ry="4.66018" fill="#042320"/>
<ellipse cx="4.66019" cy="750.291" rx="4.66019" ry="4.66018" fill="#042320"/>
<ellipse cx="4.66019" cy="703.689" rx="4.66019" ry="4.66018" fill="#042320"/>
<ellipse cx="4.66019" cy="657.088" rx="4.66019" ry="4.66018" fill="#042320"/>
<ellipse cx="4.66019" cy="610.486" rx="4.66019" ry="4.66018" fill="#042320"/>
<ellipse cx="4.66019" cy="563.883" rx="4.66019" ry="4.66018" fill="#042320"/>
<ellipse cx="4.66019" cy="517.281" rx="4.66019" ry="4.66018" fill="#042320"/>
<ellipse cx="4.66019" cy="470.68" rx="4.66019" ry="4.66018" fill="#042320"/>
<ellipse cx="284.272" cy="890.098" rx="4.66019" ry="4.66018" fill="#042320"/>
<ellipse cx="284.272" cy="843.492" rx="4.66019" ry="4.66018" fill="#042320"/>
<ellipse cx="284.272" cy="796.891" rx="4.66019" ry="4.66018" fill="#042320"/>
<ellipse cx="284.272" cy="750.291" rx="4.66019" ry="4.66018" fill="#042320"/>
<ellipse cx="284.272" cy="703.689" rx="4.66019" ry="4.66018" fill="#042320"/>
<ellipse cx="284.272" cy="657.088" rx="4.66019" ry="4.66018" fill="#042320"/>
<ellipse cx="284.272" cy="610.486" rx="4.66019" ry="4.66018" fill="#042320"/>
<ellipse cx="284.272" cy="563.883" rx="4.66019" ry="4.66018" fill="#042320"/>
<ellipse cx="284.272" cy="517.281" rx="4.66019" ry="4.66018" fill="#042320"/>
<ellipse cx="284.272" cy="470.68" rx="4.66019" ry="4.66018" fill="#042320"/>
<ellipse cx="657.086" cy="890.098" rx="4.66019" ry="4.66018" fill="#042320"/>
<ellipse cx="657.086" cy="843.492" rx="4.66019" ry="4.66018" fill="#042320"/>
<ellipse cx="657.086" cy="796.891" rx="4.66019" ry="4.66018" fill="#042320"/>
<ellipse cx="657.087" cy="750.291" rx="4.66019" ry="4.66018" fill="#042320"/>
<ellipse cx="657.087" cy="703.689" rx="4.66019" ry="4.66018" fill="#042320"/>
<ellipse cx="657.086" cy="657.088" rx="4.66019" ry="4.66018" fill="#042320"/>
<ellipse cx="657.086" cy="610.486" rx="4.66019" ry="4.66018" fill="#042320"/>
<ellipse cx="657.086" cy="563.883" rx="4.66019" ry="4.66018" fill="#042320"/>
<ellipse cx="657.086" cy="517.281" rx="4.66019" ry="4.66018" fill="#042320"/>
<ellipse cx="657.087" cy="470.68" rx="4.66019" ry="4.66018" fill="#042320"/>
<ellipse cx="1029.9" cy="890.098" rx="4.66019" ry="4.66018" fill="#042320"/>
<ellipse cx="1029.9" cy="843.492" rx="4.66019" ry="4.66018" fill="#042320"/>
<ellipse cx="1029.9" cy="796.891" rx="4.66019" ry="4.66018" fill="#042320"/>
<ellipse cx="1029.9" cy="750.291" rx="4.66019" ry="4.66018" fill="#042320"/>
<ellipse cx="1029.9" cy="703.689" rx="4.66019" ry="4.66018" fill="#042320"/>
<ellipse cx="1029.9" cy="657.088" rx="4.66019" ry="4.66018" fill="#042320"/>
<ellipse cx="1029.9" cy="610.486" rx="4.66019" ry="4.66018" fill="#042320"/>
<ellipse cx="1029.9" cy="563.883" rx="4.66019" ry="4.66018" fill="#042320"/>
<ellipse cx="1029.9" cy="517.281" rx="4.66019" ry="4.66018" fill="#042320"/>
<ellipse cx="1029.9" cy="470.68" rx="4.66019" ry="4.66018" fill="#042320"/>
<ellipse cx="191.066" cy="890.098" rx="4.66019" ry="4.66018" fill="#042320"/>
<ellipse cx="191.066" cy="843.492" rx="4.66019" ry="4.66018" fill="#042320"/>
<ellipse cx="191.066" cy="796.891" rx="4.66019" ry="4.66018" fill="#042320"/>
<ellipse cx="191.066" cy="750.291" rx="4.66019" ry="4.66018" fill="#042320"/>
<ellipse cx="191.066" cy="703.689" rx="4.66019" ry="4.66018" fill="#042320"/>
<ellipse cx="191.066" cy="657.088" rx="4.66019" ry="4.66018" fill="#042320"/>
<ellipse cx="191.066" cy="610.486" rx="4.66019" ry="4.66018" fill="#042320"/>
<ellipse cx="191.066" cy="563.883" rx="4.66019" ry="4.66018" fill="#042320"/>
<ellipse cx="191.066" cy="517.281" rx="4.66019" ry="4.66018" fill="#042320"/>
<ellipse cx="191.066" cy="470.68" rx="4.66019" ry="4.66018" fill="#042320"/>
<ellipse cx="563.882" cy="890.098" rx="4.66019" ry="4.66018" fill="#042320"/>
<ellipse cx="563.882" cy="843.492" rx="4.66019" ry="4.66018" fill="#042320"/>
<ellipse cx="563.882" cy="796.891" rx="4.66019" ry="4.66018" fill="#042320"/>
<ellipse cx="563.882" cy="750.291" rx="4.66019" ry="4.66018" fill="#042320"/>
<ellipse cx="563.882" cy="703.689" rx="4.66019" ry="4.66018" fill="#042320"/>
<ellipse cx="563.882" cy="657.088" rx="4.66019" ry="4.66018" fill="#042320"/>
<ellipse cx="563.882" cy="610.486" rx="4.66019" ry="4.66018" fill="#042320"/>
<ellipse cx="563.882" cy="563.883" rx="4.66019" ry="4.66018" fill="#042320"/>
<ellipse cx="563.882" cy="517.281" rx="4.66019" ry="4.66018" fill="#042320"/>
<ellipse cx="563.882" cy="470.68" rx="4.66019" ry="4.66018" fill="#042320"/>
<ellipse cx="936.697" cy="890.098" rx="4.66019" ry="4.66018" fill="#042320"/>
<ellipse cx="936.697" cy="843.492" rx="4.66019" ry="4.66018" fill="#042320"/>
<ellipse cx="936.697" cy="796.891" rx="4.66019" ry="4.66018" fill="#042320"/>
<ellipse cx="936.697" cy="750.291" rx="4.66019" ry="4.66018" fill="#042320"/>
<ellipse cx="936.697" cy="703.689" rx="4.66019" ry="4.66018" fill="#042320"/>
<ellipse cx="936.697" cy="657.088" rx="4.66019" ry="4.66018" fill="#042320"/>
<ellipse cx="936.697" cy="610.486" rx="4.66019" ry="4.66018" fill="#042320"/>
<ellipse cx="936.697" cy="563.883" rx="4.66019" ry="4.66018" fill="#042320"/>
<ellipse cx="936.697" cy="517.281" rx="4.66019" ry="4.66018" fill="#042320"/>
<ellipse cx="936.697" cy="470.68" rx="4.66019" ry="4.66018" fill="#042320"/>
<ellipse cx="470.68" cy="890.098" rx="4.66019" ry="4.66018" fill="#042320"/>
<ellipse cx="470.68" cy="843.492" rx="4.66019" ry="4.66018" fill="#042320"/>
<ellipse cx="470.68" cy="796.891" rx="4.66019" ry="4.66018" fill="#042320"/>
<ellipse cx="470.68" cy="750.291" rx="4.66019" ry="4.66018" fill="#042320"/>
<ellipse cx="470.68" cy="703.689" rx="4.66019" ry="4.66018" fill="#042320"/>
<ellipse cx="470.68" cy="657.088" rx="4.66019" ry="4.66018" fill="#042320"/>
<ellipse cx="470.68" cy="610.486" rx="4.66019" ry="4.66018" fill="#042320"/>
<ellipse cx="470.68" cy="563.883" rx="4.66019" ry="4.66018" fill="#042320"/>
<ellipse cx="470.68" cy="517.281" rx="4.66019" ry="4.66018" fill="#042320"/>
<ellipse cx="470.68" cy="470.68" rx="4.66019" ry="4.66018" fill="#042320"/>
<ellipse cx="843.495" cy="890.098" rx="4.66019" ry="4.66018" fill="#042320"/>
<ellipse cx="843.495" cy="843.492" rx="4.66019" ry="4.66018" fill="#042320"/>
<ellipse cx="843.495" cy="796.891" rx="4.66019" ry="4.66018" fill="#042320"/>
<ellipse cx="843.495" cy="750.291" rx="4.66019" ry="4.66018" fill="#042320"/>
<ellipse cx="843.495" cy="703.689" rx="4.66019" ry="4.66018" fill="#042320"/>
<ellipse cx="843.495" cy="657.088" rx="4.66019" ry="4.66018" fill="#042320"/>
<ellipse cx="843.495" cy="610.486" rx="4.66019" ry="4.66018" fill="#042320"/>
<ellipse cx="843.495" cy="563.883" rx="4.66019" ry="4.66018" fill="#042320"/>
<ellipse cx="843.495" cy="517.281" rx="4.66019" ry="4.66018" fill="#042320"/>
<ellipse cx="843.495" cy="470.68" rx="4.66019" ry="4.66018" fill="#042320"/>
<ellipse cx="97.8643" cy="890.098" rx="4.66019" ry="4.66018" fill="#042320"/>
<ellipse cx="97.8643" cy="843.492" rx="4.66019" ry="4.66018" fill="#042320"/>
<ellipse cx="97.8643" cy="796.891" rx="4.66019" ry="4.66018" fill="#042320"/>
<ellipse cx="97.8643" cy="750.291" rx="4.66019" ry="4.66018" fill="#042320"/>
<ellipse cx="97.8643" cy="703.689" rx="4.66019" ry="4.66018" fill="#042320"/>
<ellipse cx="97.8643" cy="657.088" rx="4.66019" ry="4.66018" fill="#042320"/>
<ellipse cx="97.8643" cy="610.486" rx="4.66019" ry="4.66018" fill="#042320"/>
<ellipse cx="97.8643" cy="563.883" rx="4.66019" ry="4.66018" fill="#042320"/>
<ellipse cx="97.8643" cy="517.281" rx="4.66019" ry="4.66018" fill="#042320"/>
<ellipse cx="97.8643" cy="470.68" rx="4.66019" ry="4.66018" fill="#042320"/>
<ellipse cx="377.476" cy="890.098" rx="4.66019" ry="4.66018" fill="#042320"/>
<ellipse cx="377.476" cy="843.492" rx="4.66019" ry="4.66018" fill="#042320"/>
<ellipse cx="377.476" cy="796.891" rx="4.66019" ry="4.66018" fill="#042320"/>
<ellipse cx="377.476" cy="750.291" rx="4.66019" ry="4.66018" fill="#042320"/>
<ellipse cx="377.476" cy="703.689" rx="4.66019" ry="4.66018" fill="#042320"/>
<ellipse cx="377.476" cy="657.088" rx="4.66019" ry="4.66018" fill="#042320"/>
<ellipse cx="377.476" cy="610.486" rx="4.66019" ry="4.66018" fill="#042320"/>
<ellipse cx="377.476" cy="563.883" rx="4.66019" ry="4.66018" fill="#042320"/>
<ellipse cx="377.476" cy="517.281" rx="4.66019" ry="4.66018" fill="#042320"/>
<ellipse cx="377.476" cy="470.68" rx="4.66019" ry="4.66018" fill="#042320"/>
<ellipse cx="750.291" cy="890.098" rx="4.66019" ry="4.66018" fill="#042320"/>
<ellipse cx="750.291" cy="843.492" rx="4.66019" ry="4.66018" fill="#042320"/>
<ellipse cx="750.291" cy="796.891" rx="4.66019" ry="4.66018" fill="#042320"/>
<ellipse cx="750.291" cy="750.291" rx="4.66019" ry="4.66018" fill="#042320"/>
<ellipse cx="750.291" cy="703.689" rx="4.66019" ry="4.66018" fill="#042320"/>
<ellipse cx="750.291" cy="657.088" rx="4.66019" ry="4.66018" fill="#042320"/>
<ellipse cx="750.291" cy="610.486" rx="4.66019" ry="4.66018" fill="#042320"/>
<ellipse cx="750.291" cy="563.883" rx="4.66019" ry="4.66018" fill="#042320"/>
<ellipse cx="750.291" cy="517.281" rx="4.66019" ry="4.66018" fill="#042320"/>
<ellipse cx="750.291" cy="470.68" rx="4.66019" ry="4.66018" fill="#042320"/>
<ellipse cx="51.2618" cy="890.098" rx="4.66019" ry="4.66018" fill="#042320"/>
<ellipse cx="51.2618" cy="843.492" rx="4.66019" ry="4.66018" fill="#042320"/>
<ellipse cx="51.2618" cy="796.891" rx="4.66019" ry="4.66018" fill="#042320"/>
<ellipse cx="51.2618" cy="750.291" rx="4.66019" ry="4.66018" fill="#042320"/>
<ellipse cx="51.2618" cy="703.689" rx="4.66019" ry="4.66018" fill="#042320"/>
<ellipse cx="51.2618" cy="657.088" rx="4.66019" ry="4.66018" fill="#042320"/>
<ellipse cx="51.2618" cy="610.486" rx="4.66019" ry="4.66018" fill="#042320"/>
<ellipse cx="51.2618" cy="563.883" rx="4.66019" ry="4.66018" fill="#042320"/>
<ellipse cx="51.2618" cy="517.281" rx="4.66019" ry="4.66018" fill="#042320"/>
<ellipse cx="51.2618" cy="470.68" rx="4.66019" ry="4.66018" fill="#042320"/>
<ellipse cx="330.874" cy="890.098" rx="4.66019" ry="4.66018" fill="#042320"/>
<ellipse cx="330.874" cy="843.492" rx="4.66019" ry="4.66018" fill="#042320"/>
<ellipse cx="330.874" cy="796.891" rx="4.66019" ry="4.66018" fill="#042320"/>
<ellipse cx="330.874" cy="750.291" rx="4.66019" ry="4.66018" fill="#042320"/>
<ellipse cx="330.874" cy="703.689" rx="4.66019" ry="4.66018" fill="#042320"/>
<ellipse cx="330.874" cy="657.088" rx="4.66019" ry="4.66018" fill="#042320"/>
<ellipse cx="330.874" cy="610.486" rx="4.66019" ry="4.66018" fill="#042320"/>
<ellipse cx="330.874" cy="563.883" rx="4.66019" ry="4.66018" fill="#042320"/>
<ellipse cx="330.874" cy="517.281" rx="4.66019" ry="4.66018" fill="#042320"/>
<ellipse cx="330.874" cy="470.68" rx="4.66019" ry="4.66018" fill="#042320"/>
<ellipse cx="703.69" cy="890.098" rx="4.66019" ry="4.66018" fill="#042320"/>
<ellipse cx="703.69" cy="843.492" rx="4.66019" ry="4.66018" fill="#042320"/>
<ellipse cx="703.69" cy="796.891" rx="4.66019" ry="4.66018" fill="#042320"/>
<ellipse cx="703.69" cy="750.291" rx="4.66019" ry="4.66018" fill="#042320"/>
<ellipse cx="703.69" cy="703.689" rx="4.66019" ry="4.66018" fill="#042320"/>
<ellipse cx="703.69" cy="657.088" rx="4.66019" ry="4.66018" fill="#042320"/>
<ellipse cx="703.69" cy="610.486" rx="4.66019" ry="4.66018" fill="#042320"/>
<ellipse cx="703.69" cy="563.883" rx="4.66019" ry="4.66018" fill="#042320"/>
<ellipse cx="703.69" cy="517.281" rx="4.66019" ry="4.66018" fill="#042320"/>
<ellipse cx="703.69" cy="470.68" rx="4.66019" ry="4.66018" fill="#042320"/>
<ellipse cx="1076.5" cy="890.098" rx="4.66019" ry="4.66018" fill="#042320"/>
<ellipse cx="1076.5" cy="843.492" rx="4.66019" ry="4.66018" fill="#042320"/>
<ellipse cx="1076.5" cy="796.891" rx="4.66019" ry="4.66018" fill="#042320"/>
<ellipse cx="1076.5" cy="750.291" rx="4.66019" ry="4.66018" fill="#042320"/>
<ellipse cx="1076.5" cy="703.689" rx="4.66019" ry="4.66018" fill="#042320"/>
<ellipse cx="1076.5" cy="657.088" rx="4.66019" ry="4.66018" fill="#042320"/>
<ellipse cx="1076.5" cy="610.486" rx="4.66019" ry="4.66018" fill="#042320"/>
<ellipse cx="1076.5" cy="563.883" rx="4.66019" ry="4.66018" fill="#042320"/>
<ellipse cx="1076.5" cy="517.281" rx="4.66019" ry="4.66018" fill="#042320"/>
<ellipse cx="1076.5" cy="470.68" rx="4.66019" ry="4.66018" fill="#042320"/>
<ellipse cx="237.67" cy="890.098" rx="4.66019" ry="4.66018" fill="#042320"/>
<ellipse cx="237.67" cy="843.492" rx="4.66019" ry="4.66018" fill="#042320"/>
<ellipse cx="237.67" cy="796.891" rx="4.66019" ry="4.66018" fill="#042320"/>
<ellipse cx="237.67" cy="750.291" rx="4.66019" ry="4.66018" fill="#042320"/>
<ellipse cx="237.67" cy="703.689" rx="4.66019" ry="4.66018" fill="#042320"/>
<ellipse cx="237.67" cy="657.088" rx="4.66019" ry="4.66018" fill="#042320"/>
<ellipse cx="237.67" cy="610.486" rx="4.66019" ry="4.66018" fill="#042320"/>
<ellipse cx="237.67" cy="563.883" rx="4.66019" ry="4.66018" fill="#042320"/>
<ellipse cx="237.67" cy="517.281" rx="4.66019" ry="4.66018" fill="#042320"/>
<ellipse cx="237.67" cy="470.68" rx="4.66019" ry="4.66018" fill="#042320"/>
<ellipse cx="610.485" cy="890.098" rx="4.66019" ry="4.66018" fill="#042320"/>
<ellipse cx="610.485" cy="843.492" rx="4.66019" ry="4.66018" fill="#042320"/>
<ellipse cx="610.485" cy="796.891" rx="4.66019" ry="4.66018" fill="#042320"/>
<ellipse cx="610.484" cy="750.291" rx="4.66019" ry="4.66018" fill="#042320"/>
<ellipse cx="610.484" cy="703.689" rx="4.66019" ry="4.66018" fill="#042320"/>
<ellipse cx="610.485" cy="657.088" rx="4.66019" ry="4.66018" fill="#042320"/>
<ellipse cx="610.485" cy="610.486" rx="4.66019" ry="4.66018" fill="#042320"/>
<ellipse cx="610.485" cy="563.883" rx="4.66019" ry="4.66018" fill="#042320"/>
<ellipse cx="610.485" cy="517.281" rx="4.66019" ry="4.66018" fill="#042320"/>
<ellipse cx="610.484" cy="470.68" rx="4.66019" ry="4.66018" fill="#042320"/>
<ellipse cx="983.301" cy="890.098" rx="4.66019" ry="4.66018" fill="#042320"/>
<ellipse cx="983.301" cy="843.492" rx="4.66019" ry="4.66018" fill="#042320"/>
<ellipse cx="983.301" cy="796.891" rx="4.66019" ry="4.66018" fill="#042320"/>
<ellipse cx="983.301" cy="750.291" rx="4.66019" ry="4.66018" fill="#042320"/>
<ellipse cx="983.301" cy="703.689" rx="4.66019" ry="4.66018" fill="#042320"/>
<ellipse cx="983.301" cy="657.088" rx="4.66019" ry="4.66018" fill="#042320"/>
<ellipse cx="983.301" cy="610.486" rx="4.66019" ry="4.66018" fill="#042320"/>
<ellipse cx="983.301" cy="563.883" rx="4.66019" ry="4.66018" fill="#042320"/>
<ellipse cx="983.301" cy="517.281" rx="4.66019" ry="4.66018" fill="#042320"/>
<ellipse cx="983.301" cy="470.68" rx="4.66019" ry="4.66018" fill="#042320"/>
<ellipse cx="517.281" cy="890.098" rx="4.66019" ry="4.66018" fill="#042320"/>
<ellipse cx="517.281" cy="843.492" rx="4.66019" ry="4.66018" fill="#042320"/>
<ellipse cx="517.281" cy="796.891" rx="4.66019" ry="4.66018" fill="#042320"/>
<ellipse cx="517.281" cy="750.291" rx="4.66019" ry="4.66018" fill="#042320"/>
<ellipse cx="517.281" cy="703.689" rx="4.66019" ry="4.66018" fill="#042320"/>
<ellipse cx="517.281" cy="657.088" rx="4.66019" ry="4.66018" fill="#042320"/>
<ellipse cx="517.281" cy="610.486" rx="4.66019" ry="4.66018" fill="#042320"/>
<ellipse cx="517.281" cy="563.883" rx="4.66019" ry="4.66018" fill="#042320"/>
<ellipse cx="517.281" cy="517.281" rx="4.66019" ry="4.66018" fill="#042320"/>
<ellipse cx="517.281" cy="470.68" rx="4.66019" ry="4.66018" fill="#042320"/>
<ellipse cx="890.096" cy="890.098" rx="4.66019" ry="4.66018" fill="#042320"/>
<ellipse cx="890.096" cy="843.492" rx="4.66019" ry="4.66018" fill="#042320"/>
<ellipse cx="890.096" cy="796.891" rx="4.66019" ry="4.66018" fill="#042320"/>
<ellipse cx="890.096" cy="750.291" rx="4.66019" ry="4.66018" fill="#042320"/>
<ellipse cx="890.096" cy="703.689" rx="4.66019" ry="4.66018" fill="#042320"/>
<ellipse cx="890.096" cy="657.088" rx="4.66019" ry="4.66018" fill="#042320"/>
<ellipse cx="890.096" cy="610.486" rx="4.66019" ry="4.66018" fill="#042320"/>
<ellipse cx="890.096" cy="563.883" rx="4.66019" ry="4.66018" fill="#042320"/>
<ellipse cx="890.096" cy="517.281" rx="4.66019" ry="4.66018" fill="#042320"/>
<ellipse cx="890.096" cy="470.68" rx="4.66019" ry="4.66018" fill="#042320"/>
<ellipse cx="144.466" cy="890.098" rx="4.66019" ry="4.66018" fill="#042320"/>
<ellipse cx="144.466" cy="843.492" rx="4.66019" ry="4.66018" fill="#042320"/>
<ellipse cx="144.466" cy="796.891" rx="4.66019" ry="4.66018" fill="#042320"/>
<ellipse cx="144.466" cy="750.291" rx="4.66019" ry="4.66018" fill="#042320"/>
<ellipse cx="144.466" cy="703.689" rx="4.66019" ry="4.66018" fill="#042320"/>
<ellipse cx="144.466" cy="657.088" rx="4.66019" ry="4.66018" fill="#042320"/>
<ellipse cx="144.466" cy="610.486" rx="4.66019" ry="4.66018" fill="#042320"/>
<ellipse cx="144.466" cy="563.883" rx="4.66019" ry="4.66018" fill="#042320"/>
<ellipse cx="144.466" cy="517.281" rx="4.66019" ry="4.66018" fill="#042320"/>
<ellipse cx="144.466" cy="470.68" rx="4.66019" ry="4.66018" fill="#042320"/>
<ellipse cx="424.076" cy="890.098" rx="4.66019" ry="4.66018" fill="#042320"/>
<ellipse cx="424.076" cy="843.492" rx="4.66019" ry="4.66018" fill="#042320"/>
<ellipse cx="424.076" cy="796.891" rx="4.66019" ry="4.66018" fill="#042320"/>
<ellipse cx="424.076" cy="750.291" rx="4.66019" ry="4.66018" fill="#042320"/>
<ellipse cx="424.076" cy="703.689" rx="4.66019" ry="4.66018" fill="#042320"/>
<ellipse cx="424.076" cy="657.088" rx="4.66019" ry="4.66018" fill="#042320"/>
<ellipse cx="424.076" cy="610.486" rx="4.66019" ry="4.66018" fill="#042320"/>
<ellipse cx="424.076" cy="563.883" rx="4.66019" ry="4.66018" fill="#042320"/>
<ellipse cx="424.076" cy="517.281" rx="4.66019" ry="4.66018" fill="#042320"/>
<ellipse cx="424.076" cy="470.68" rx="4.66019" ry="4.66018" fill="#042320"/>
<ellipse cx="796.892" cy="890.098" rx="4.66019" ry="4.66018" fill="#042320"/>
<ellipse cx="796.892" cy="843.492" rx="4.66019" ry="4.66018" fill="#042320"/>
<ellipse cx="796.892" cy="796.891" rx="4.66019" ry="4.66018" fill="#042320"/>
<ellipse cx="796.892" cy="750.291" rx="4.66019" ry="4.66018" fill="#042320"/>
<ellipse cx="796.892" cy="703.689" rx="4.66019" ry="4.66018" fill="#042320"/>
<ellipse cx="796.892" cy="657.088" rx="4.66019" ry="4.66018" fill="#042320"/>
<ellipse cx="796.892" cy="610.486" rx="4.66019" ry="4.66018" fill="#042320"/>
<ellipse cx="796.892" cy="563.883" rx="4.66019" ry="4.66018" fill="#042320"/>
<ellipse cx="796.892" cy="517.281" rx="4.66019" ry="4.66018" fill="#042320"/>
<ellipse cx="796.892" cy="470.68" rx="4.66019" ry="4.66018" fill="#042320"/>
<ellipse cx="1123.11" cy="890.098" rx="4.66019" ry="4.66018" fill="#042320"/>
<ellipse cx="1123.11" cy="843.492" rx="4.66019" ry="4.66018" fill="#042320"/>
<ellipse cx="1123.11" cy="796.891" rx="4.66019" ry="4.66018" fill="#042320"/>
<ellipse cx="1123.11" cy="750.291" rx="4.66019" ry="4.66018" fill="#042320"/>
<ellipse cx="1123.11" cy="703.689" rx="4.66019" ry="4.66018" fill="#042320"/>
<ellipse cx="1123.11" cy="657.088" rx="4.66019" ry="4.66018" fill="#042320"/>
<ellipse cx="1123.11" cy="610.486" rx="4.66019" ry="4.66018" fill="#042320"/>
<ellipse cx="1123.11" cy="563.883" rx="4.66019" ry="4.66018" fill="#042320"/>
<ellipse cx="1123.11" cy="517.281" rx="4.66019" ry="4.66018" fill="#042320"/>
<ellipse cx="1123.11" cy="470.68" rx="4.66019" ry="4.66018" fill="#042320"/>
<ellipse cx="1169.71" cy="890.098" rx="4.66019" ry="4.66018" fill="#042320"/>
<ellipse cx="1169.71" cy="843.492" rx="4.66019" ry="4.66018" fill="#042320"/>
<ellipse cx="1169.71" cy="796.891" rx="4.66019" ry="4.66018" fill="#042320"/>
<ellipse cx="1169.71" cy="750.291" rx="4.66019" ry="4.66018" fill="#042320"/>
<ellipse cx="1169.71" cy="703.689" rx="4.66019" ry="4.66018" fill="#042320"/>
<ellipse cx="1169.71" cy="657.088" rx="4.66019" ry="4.66018" fill="#042320"/>
<ellipse cx="1169.71" cy="610.486" rx="4.66019" ry="4.66018" fill="#042320"/>
<ellipse cx="1169.71" cy="563.883" rx="4.66019" ry="4.66018" fill="#042320"/>
<ellipse cx="1169.71" cy="517.281" rx="4.66019" ry="4.66018" fill="#042320"/>
<ellipse cx="1169.71" cy="470.68" rx="4.66019" ry="4.66018" fill="#042320"/>
<ellipse cx="1449.32" cy="890.098" rx="4.66019" ry="4.66018" fill="#042320"/>
<ellipse cx="1449.32" cy="843.492" rx="4.66019" ry="4.66018" fill="#042320"/>
<ellipse cx="1449.32" cy="796.891" rx="4.66019" ry="4.66018" fill="#042320"/>
<ellipse cx="1449.32" cy="750.291" rx="4.66019" ry="4.66018" fill="#042320"/>
<ellipse cx="1449.32" cy="703.689" rx="4.66019" ry="4.66018" fill="#042320"/>
<ellipse cx="1449.32" cy="657.088" rx="4.66019" ry="4.66018" fill="#042320"/>
<ellipse cx="1449.32" cy="610.486" rx="4.66019" ry="4.66018" fill="#042320"/>
<ellipse cx="1449.32" cy="563.883" rx="4.66019" ry="4.66018" fill="#042320"/>
<ellipse cx="1449.32" cy="517.281" rx="4.66019" ry="4.66018" fill="#042320"/>
<ellipse cx="1449.32" cy="470.68" rx="4.66019" ry="4.66018" fill="#042320"/>
<ellipse cx="1822.13" cy="890.098" rx="4.66019" ry="4.66018" fill="#042320"/>
<ellipse cx="1822.13" cy="843.492" rx="4.66019" ry="4.66018" fill="#042320"/>
<ellipse cx="1822.13" cy="796.891" rx="4.66019" ry="4.66018" fill="#042320"/>
<ellipse cx="1822.14" cy="750.291" rx="4.66019" ry="4.66018" fill="#042320"/>
<ellipse cx="1822.14" cy="703.689" rx="4.66019" ry="4.66018" fill="#042320"/>
<ellipse cx="1822.13" cy="657.088" rx="4.66019" ry="4.66018" fill="#042320"/>
<ellipse cx="1822.13" cy="610.486" rx="4.66019" ry="4.66018" fill="#042320"/>
<ellipse cx="1822.13" cy="563.883" rx="4.66019" ry="4.66018" fill="#042320"/>
<ellipse cx="1822.13" cy="517.281" rx="4.66019" ry="4.66018" fill="#042320"/>
<ellipse cx="1822.14" cy="470.68" rx="4.66019" ry="4.66018" fill="#042320"/>
<ellipse cx="1356.12" cy="890.098" rx="4.66019" ry="4.66018" fill="#042320"/>
<ellipse cx="1356.12" cy="843.492" rx="4.66019" ry="4.66018" fill="#042320"/>
<ellipse cx="1356.12" cy="796.891" rx="4.66019" ry="4.66018" fill="#042320"/>
<ellipse cx="1356.12" cy="750.291" rx="4.66019" ry="4.66018" fill="#042320"/>
<ellipse cx="1356.12" cy="703.689" rx="4.66019" ry="4.66018" fill="#042320"/>
<ellipse cx="1356.12" cy="657.088" rx="4.66019" ry="4.66018" fill="#042320"/>
<ellipse cx="1356.12" cy="610.486" rx="4.66019" ry="4.66018" fill="#042320"/>
<ellipse cx="1356.12" cy="563.883" rx="4.66019" ry="4.66018" fill="#042320"/>
<ellipse cx="1356.12" cy="517.281" rx="4.66019" ry="4.66018" fill="#042320"/>
<ellipse cx="1356.12" cy="470.68" rx="4.66019" ry="4.66018" fill="#042320"/>
<ellipse cx="1728.93" cy="890.098" rx="4.66019" ry="4.66018" fill="#042320"/>
<ellipse cx="1728.93" cy="843.492" rx="4.66019" ry="4.66018" fill="#042320"/>
<ellipse cx="1728.93" cy="796.891" rx="4.66019" ry="4.66018" fill="#042320"/>
<ellipse cx="1728.93" cy="750.291" rx="4.66019" ry="4.66018" fill="#042320"/>
<ellipse cx="1728.93" cy="703.689" rx="4.66019" ry="4.66018" fill="#042320"/>
<ellipse cx="1728.93" cy="657.088" rx="4.66019" ry="4.66018" fill="#042320"/>
<ellipse cx="1728.93" cy="610.486" rx="4.66019" ry="4.66018" fill="#042320"/>
<ellipse cx="1728.93" cy="563.883" rx="4.66019" ry="4.66018" fill="#042320"/>
<ellipse cx="1728.93" cy="517.281" rx="4.66019" ry="4.66018" fill="#042320"/>
<ellipse cx="1728.93" cy="470.68" rx="4.66019" ry="4.66018" fill="#042320"/>
<ellipse cx="1635.73" cy="890.098" rx="4.66019" ry="4.66018" fill="#042320"/>
<ellipse cx="1635.73" cy="843.492" rx="4.66019" ry="4.66018" fill="#042320"/>
<ellipse cx="1635.73" cy="796.891" rx="4.66019" ry="4.66018" fill="#042320"/>
<ellipse cx="1635.73" cy="750.291" rx="4.66019" ry="4.66018" fill="#042320"/>
<ellipse cx="1635.73" cy="703.689" rx="4.66019" ry="4.66018" fill="#042320"/>
<ellipse cx="1635.73" cy="657.088" rx="4.66019" ry="4.66018" fill="#042320"/>
<ellipse cx="1635.73" cy="610.486" rx="4.66019" ry="4.66018" fill="#042320"/>
<ellipse cx="1635.73" cy="563.883" rx="4.66019" ry="4.66018" fill="#042320"/>
<ellipse cx="1635.73" cy="517.281" rx="4.66019" ry="4.66018" fill="#042320"/>
<ellipse cx="1635.73" cy="470.68" rx="4.66019" ry="4.66018" fill="#042320"/>
<ellipse cx="1262.91" cy="890.098" rx="4.66019" ry="4.66018" fill="#042320"/>
<ellipse cx="1262.91" cy="843.492" rx="4.66019" ry="4.66018" fill="#042320"/>
<ellipse cx="1262.91" cy="796.891" rx="4.66019" ry="4.66018" fill="#042320"/>
<ellipse cx="1262.91" cy="750.291" rx="4.66019" ry="4.66018" fill="#042320"/>
<ellipse cx="1262.91" cy="703.689" rx="4.66019" ry="4.66018" fill="#042320"/>
<ellipse cx="1262.91" cy="657.088" rx="4.66019" ry="4.66018" fill="#042320"/>
<ellipse cx="1262.91" cy="610.486" rx="4.66019" ry="4.66018" fill="#042320"/>
<ellipse cx="1262.91" cy="563.883" rx="4.66019" ry="4.66018" fill="#042320"/>
<ellipse cx="1262.91" cy="517.281" rx="4.66019" ry="4.66018" fill="#042320"/>
<ellipse cx="1262.91" cy="470.68" rx="4.66019" ry="4.66018" fill="#042320"/>
<ellipse cx="1542.52" cy="890.098" rx="4.66019" ry="4.66018" fill="#042320"/>
<ellipse cx="1542.52" cy="843.492" rx="4.66019" ry="4.66018" fill="#042320"/>
<ellipse cx="1542.52" cy="796.891" rx="4.66019" ry="4.66018" fill="#042320"/>
<ellipse cx="1542.52" cy="750.291" rx="4.66019" ry="4.66018" fill="#042320"/>
<ellipse cx="1542.52" cy="703.689" rx="4.66019" ry="4.66018" fill="#042320"/>
<ellipse cx="1542.52" cy="657.088" rx="4.66019" ry="4.66018" fill="#042320"/>
<ellipse cx="1542.52" cy="610.486" rx="4.66019" ry="4.66018" fill="#042320"/>
<ellipse cx="1542.52" cy="563.883" rx="4.66019" ry="4.66018" fill="#042320"/>
<ellipse cx="1542.52" cy="517.281" rx="4.66019" ry="4.66018" fill="#042320"/>
<ellipse cx="1542.52" cy="470.68" rx="4.66019" ry="4.66018" fill="#042320"/>
<ellipse cx="1915.34" cy="890.098" rx="4.66019" ry="4.66018" fill="#042320"/>
<ellipse cx="1915.34" cy="843.492" rx="4.66019" ry="4.66018" fill="#042320"/>
<ellipse cx="1915.34" cy="796.891" rx="4.66019" ry="4.66018" fill="#042320"/>
<ellipse cx="1915.34" cy="750.291" rx="4.66019" ry="4.66018" fill="#042320"/>
<ellipse cx="1915.34" cy="703.689" rx="4.66019" ry="4.66018" fill="#042320"/>
<ellipse cx="1915.34" cy="657.088" rx="4.66019" ry="4.66018" fill="#042320"/>
<ellipse cx="1915.34" cy="610.486" rx="4.66019" ry="4.66018" fill="#042320"/>
<ellipse cx="1915.34" cy="563.883" rx="4.66019" ry="4.66018" fill="#042320"/>
<ellipse cx="1915.34" cy="517.281" rx="4.66019" ry="4.66018" fill="#042320"/>
<ellipse cx="1915.34" cy="470.68" rx="4.66019" ry="4.66018" fill="#042320"/>
<ellipse cx="1216.31" cy="890.098" rx="4.66019" ry="4.66018" fill="#042320"/>
<ellipse cx="1216.31" cy="843.492" rx="4.66019" ry="4.66018" fill="#042320"/>
<ellipse cx="1216.31" cy="796.891" rx="4.66019" ry="4.66018" fill="#042320"/>
<ellipse cx="1216.31" cy="750.291" rx="4.66019" ry="4.66018" fill="#042320"/>
<ellipse cx="1216.31" cy="703.689" rx="4.66019" ry="4.66018" fill="#042320"/>
<ellipse cx="1216.31" cy="657.088" rx="4.66019" ry="4.66018" fill="#042320"/>
<ellipse cx="1216.31" cy="610.486" rx="4.66019" ry="4.66018" fill="#042320"/>
<ellipse cx="1216.31" cy="563.883" rx="4.66019" ry="4.66018" fill="#042320"/>
<ellipse cx="1216.31" cy="517.281" rx="4.66019" ry="4.66018" fill="#042320"/>
<ellipse cx="1216.31" cy="470.68" rx="4.66019" ry="4.66018" fill="#042320"/>
<ellipse cx="1495.92" cy="890.098" rx="4.66019" ry="4.66018" fill="#042320"/>
<ellipse cx="1495.92" cy="843.492" rx="4.66019" ry="4.66018" fill="#042320"/>
<ellipse cx="1495.92" cy="796.891" rx="4.66019" ry="4.66018" fill="#042320"/>
<ellipse cx="1495.92" cy="750.291" rx="4.66019" ry="4.66018" fill="#042320"/>
<ellipse cx="1495.92" cy="703.689" rx="4.66019" ry="4.66018" fill="#042320"/>
<ellipse cx="1495.92" cy="657.088" rx="4.66019" ry="4.66018" fill="#042320"/>
<ellipse cx="1495.92" cy="610.486" rx="4.66019" ry="4.66018" fill="#042320"/>
<ellipse cx="1495.92" cy="563.883" rx="4.66019" ry="4.66018" fill="#042320"/>
<ellipse cx="1495.92" cy="517.281" rx="4.66019" ry="4.66018" fill="#042320"/>
<ellipse cx="1495.92" cy="470.68" rx="4.66019" ry="4.66018" fill="#042320"/>
<ellipse cx="1868.74" cy="890.098" rx="4.66019" ry="4.66018" fill="#042320"/>
<ellipse cx="1868.74" cy="843.492" rx="4.66019" ry="4.66018" fill="#042320"/>
<ellipse cx="1868.74" cy="796.891" rx="4.66019" ry="4.66018" fill="#042320"/>
<ellipse cx="1868.74" cy="750.291" rx="4.66019" ry="4.66018" fill="#042320"/>
<ellipse cx="1868.74" cy="703.689" rx="4.66019" ry="4.66018" fill="#042320"/>
<ellipse cx="1868.74" cy="657.088" rx="4.66019" ry="4.66018" fill="#042320"/>
<ellipse cx="1868.74" cy="610.486" rx="4.66019" ry="4.66018" fill="#042320"/>
<ellipse cx="1868.74" cy="563.883" rx="4.66019" ry="4.66018" fill="#042320"/>
<ellipse cx="1868.74" cy="517.281" rx="4.66019" ry="4.66018" fill="#042320"/>
<ellipse cx="1868.74" cy="470.68" rx="4.66019" ry="4.66018" fill="#042320"/>
<ellipse cx="1402.72" cy="890.098" rx="4.66019" ry="4.66018" fill="#042320"/>
<ellipse cx="1402.72" cy="843.492" rx="4.66019" ry="4.66018" fill="#042320"/>
<ellipse cx="1402.72" cy="796.891" rx="4.66019" ry="4.66018" fill="#042320"/>
<ellipse cx="1402.72" cy="750.291" rx="4.66019" ry="4.66018" fill="#042320"/>
<ellipse cx="1402.72" cy="703.689" rx="4.66019" ry="4.66018" fill="#042320"/>
<ellipse cx="1402.72" cy="657.088" rx="4.66019" ry="4.66018" fill="#042320"/>
<ellipse cx="1402.72" cy="610.486" rx="4.66019" ry="4.66018" fill="#042320"/>
<ellipse cx="1402.72" cy="563.883" rx="4.66019" ry="4.66018" fill="#042320"/>
<ellipse cx="1402.72" cy="517.281" rx="4.66019" ry="4.66018" fill="#042320"/>
<ellipse cx="1402.72" cy="470.68" rx="4.66019" ry="4.66018" fill="#042320"/>
<ellipse cx="1775.53" cy="890.098" rx="4.66019" ry="4.66018" fill="#042320"/>
<ellipse cx="1775.53" cy="843.492" rx="4.66019" ry="4.66018" fill="#042320"/>
<ellipse cx="1775.53" cy="796.891" rx="4.66019" ry="4.66018" fill="#042320"/>
<ellipse cx="1775.53" cy="750.291" rx="4.66019" ry="4.66018" fill="#042320"/>
<ellipse cx="1775.53" cy="703.689" rx="4.66019" ry="4.66018" fill="#042320"/>
<ellipse cx="1775.53" cy="657.088" rx="4.66019" ry="4.66018" fill="#042320"/>
<ellipse cx="1775.53" cy="610.486" rx="4.66019" ry="4.66018" fill="#042320"/>
<ellipse cx="1775.53" cy="563.883" rx="4.66019" ry="4.66018" fill="#042320"/>
<ellipse cx="1775.53" cy="517.281" rx="4.66019" ry="4.66018" fill="#042320"/>
<ellipse cx="1775.53" cy="470.68" rx="4.66019" ry="4.66018" fill="#042320"/>
<ellipse cx="1682.33" cy="890.098" rx="4.66019" ry="4.66018" fill="#042320"/>
<ellipse cx="1682.33" cy="843.492" rx="4.66019" ry="4.66018" fill="#042320"/>
<ellipse cx="1682.33" cy="796.891" rx="4.66019" ry="4.66018" fill="#042320"/>
<ellipse cx="1682.33" cy="750.291" rx="4.66019" ry="4.66018" fill="#042320"/>
<ellipse cx="1682.33" cy="703.689" rx="4.66019" ry="4.66018" fill="#042320"/>
<ellipse cx="1682.33" cy="657.088" rx="4.66019" ry="4.66018" fill="#042320"/>
<ellipse cx="1682.33" cy="610.486" rx="4.66019" ry="4.66018" fill="#042320"/>
<ellipse cx="1682.33" cy="563.883" rx="4.66019" ry="4.66018" fill="#042320"/>
<ellipse cx="1682.33" cy="517.281" rx="4.66019" ry="4.66018" fill="#042320"/>
<ellipse cx="1682.33" cy="470.68" rx="4.66019" ry="4.66018" fill="#042320"/>
<ellipse cx="1309.51" cy="890.098" rx="4.66019" ry="4.66018" fill="#042320"/>
<ellipse cx="1309.51" cy="843.492" rx="4.66019" ry="4.66018" fill="#042320"/>
<ellipse cx="1309.51" cy="796.891" rx="4.66019" ry="4.66018" fill="#042320"/>
<ellipse cx="1309.51" cy="750.291" rx="4.66019" ry="4.66018" fill="#042320"/>
<ellipse cx="1309.51" cy="703.689" rx="4.66019" ry="4.66018" fill="#042320"/>
<ellipse cx="1309.51" cy="657.088" rx="4.66019" ry="4.66018" fill="#042320"/>
<ellipse cx="1309.51" cy="610.486" rx="4.66019" ry="4.66018" fill="#042320"/>
<ellipse cx="1309.51" cy="563.883" rx="4.66019" ry="4.66018" fill="#042320"/>
<ellipse cx="1309.51" cy="517.281" rx="4.66019" ry="4.66018" fill="#042320"/>
<ellipse cx="1309.51" cy="470.68" rx="4.66019" ry="4.66018" fill="#042320"/>
<ellipse cx="1589.12" cy="890.098" rx="4.66019" ry="4.66018" fill="#042320"/>
<ellipse cx="1589.12" cy="843.492" rx="4.66019" ry="4.66018" fill="#042320"/>
<ellipse cx="1589.12" cy="796.891" rx="4.66019" ry="4.66018" fill="#042320"/>
<ellipse cx="1589.12" cy="750.291" rx="4.66019" ry="4.66018" fill="#042320"/>
<ellipse cx="1589.12" cy="703.689" rx="4.66019" ry="4.66018" fill="#042320"/>
<ellipse cx="1589.12" cy="657.088" rx="4.66019" ry="4.66018" fill="#042320"/>
<ellipse cx="1589.12" cy="610.486" rx="4.66019" ry="4.66018" fill="#042320"/>
<ellipse cx="1589.12" cy="563.883" rx="4.66019" ry="4.66018" fill="#042320"/>
<ellipse cx="1589.12" cy="517.281" rx="4.66019" ry="4.66018" fill="#042320"/>
<ellipse cx="1589.12" cy="470.68" rx="4.66019" ry="4.66018" fill="#042320"/>
</g>
</svg>
