<svg width="23" height="24" viewBox="0 0 23 24" fill="none" xmlns="http://www.w3.org/2000/svg">
<mask id="mask0_2_753" style="mask-type:luminance" maskUnits="userSpaceOnUse" x="0" y="0" width="23" height="24">
<path d="M23 0.5H0V23.5H23V0.5Z" fill="white"/>
</mask>
<g mask="url(#mask0_2_753)">
<path fill-rule="evenodd" clip-rule="evenodd" d="M13.175 1.16406H9.7C5.8409 1.16406 3.91135 1.16406 2.55869 2.14683C2.12183 2.46422 1.73766 2.8484 1.42027 3.28525C0.4375 4.63792 0.4375 6.56747 0.4375 10.4266V13.9016C0.4375 17.7607 0.4375 19.6902 1.42027 21.0429C1.73766 21.4797 2.12183 21.8639 2.55869 22.1813C3.91135 23.1641 5.8409 23.1641 9.7 23.1641H13.175C17.0341 23.1641 18.9636 23.1641 20.3163 22.1813C20.7532 21.8639 21.1373 21.4797 21.4547 21.0429C22.4375 19.6902 22.4375 17.7607 22.4375 13.9016V10.4266C22.4375 6.56747 22.4375 4.63792 21.4547 3.28525C21.1373 2.8484 20.7532 2.46422 20.3163 2.14683C18.9636 1.16406 17.0341 1.16406 13.175 1.16406ZM15.9496 12.1644C15.9496 14.6568 13.9292 16.6772 11.4368 16.6772C8.94446 16.6772 6.924 14.6568 6.924 12.1644C6.924 9.67204 8.94446 7.65158 11.4368 7.65158C13.9292 7.65158 15.9496 9.67204 15.9496 12.1644ZM17.6426 7.08731C18.2657 7.08731 18.7708 6.5822 18.7708 5.95911C18.7708 5.33602 18.2657 4.8309 17.6426 4.8309C17.0195 4.8309 16.5144 5.33602 16.5144 5.95911C16.5144 6.5822 17.0195 7.08731 17.6426 7.08731Z" fill="#042320"/>
</g>
</svg>
