<svg width="14" height="15" viewBox="0 0 14 15" fill="none" xmlns="http://www.w3.org/2000/svg">
<g clip-path="url(#clip0_2_766)">
<path d="M13.497 14.2494L13.5003 14.2488V9.29771C13.5003 6.87559 12.9789 5.00977 10.1473 5.00977C8.78602 5.00977 7.87252 5.75677 7.49958 6.46496H7.4602V5.2359H4.77539V14.2488H7.57102V9.78596C7.57102 8.6109 7.79377 7.47465 9.24895 7.47465C10.6828 7.47465 10.7041 8.81565 10.7041 9.86134V14.2494H13.497Z" fill="#042320"/>
<path d="M0.222656 5.23633H3.02166V14.2492H0.222656V5.23633Z" fill="#042320"/>
<path d="M1.62112 0.75C0.726188 0.75 0 1.47619 0 2.37112C0 3.26606 0.726188 4.00744 1.62112 4.00744C2.51606 4.00744 3.24225 3.26606 3.24225 2.37112C3.24169 1.47619 2.5155 0.75 1.62112 0.75Z" fill="#042320"/>
</g>
<defs>
<clipPath id="clip0_2_766">
<rect width="14" height="15" fill="white"/>
</clipPath>
</defs>
</svg>
