<svg width="25" height="24" viewBox="0 0 25 24" fill="none" xmlns="http://www.w3.org/2000/svg">
<mask id="mask0_2_759" style="mask-type:luminance" maskUnits="userSpaceOnUse" x="0" y="0" width="25" height="24">
<path d="M25 0.5H0V23.5H25V0.5Z" fill="white"/>
</mask>
<g mask="url(#mask0_2_759)">
<path d="M1.92592 20.7969C1.39709 21.3257 1.39709 22.1831 1.92592 22.7119C2.45476 23.2408 3.31217 23.2408 3.841 22.7119L1.92592 20.7969ZM23.0204 3.53241C23.5493 3.00357 23.5493 2.14616 23.0204 1.61733C22.4916 1.0885 21.6342 1.0885 21.1054 1.61733L23.0204 3.53241ZM3.841 22.7119L12.3025 14.2504L10.3874 12.3353L1.92592 20.7969L3.841 22.7119ZM14.5589 11.994L23.0204 3.53241L21.1054 1.61733L12.6438 10.0789L14.5589 11.994Z" fill="#042320"/>
<path d="M5.96207 1.16406H3.62622C2.45919 1.16406 1.87568 1.16406 1.63171 1.47123C1.55562 1.56702 1.50215 1.67876 1.47528 1.79811C1.38912 2.18079 1.75518 2.63521 2.48729 3.54403L17.8533 22.619C18.0447 22.8567 18.1404 22.9755 18.2665 23.0503C18.3081 23.075 18.3518 23.0959 18.3972 23.1128C18.5345 23.1641 18.6871 23.1641 18.9922 23.1641H21.3199C22.4866 23.1641 23.07 23.1641 23.3139 22.857C23.39 22.7612 23.4435 22.6495 23.4704 22.5302C23.5566 22.1475 23.1907 21.6932 22.4591 20.7844L7.10124 1.70939C6.90983 1.47165 6.81412 1.35278 6.68801 1.27791C6.64639 1.2532 6.60265 1.23226 6.5573 1.21534C6.4199 1.16406 6.26729 1.16406 5.96207 1.16406Z" fill="#042320"/>
</g>
</svg>
