<svg width="1920" height="429" viewBox="0 0 1920 429" fill="none" xmlns="http://www.w3.org/2000/svg">
<g opacity="0.05">
<ellipse cx="4.66019" cy="424.078" rx="4.66019" ry="4.66018" fill="#F1B96A"/>
<ellipse cx="4.66019" cy="377.473" rx="4.66019" ry="4.66018" fill="#F1B96A"/>
<ellipse cx="4.66019" cy="330.871" rx="4.66019" ry="4.66018" fill="#F1B96A"/>
<ellipse cx="4.66019" cy="284.272" rx="4.66019" ry="4.66018" fill="#F1B96A"/>
<ellipse cx="4.66019" cy="237.67" rx="4.66019" ry="4.66018" fill="#F1B96A"/>
<ellipse cx="4.66019" cy="191.068" rx="4.66019" ry="4.66018" fill="#F1B96A"/>
<ellipse cx="4.66019" cy="144.467" rx="4.66019" ry="4.66018" fill="#F1B96A"/>
<ellipse cx="4.66019" cy="97.8633" rx="4.66019" ry="4.66018" fill="#F1B96A"/>
<ellipse cx="4.66019" cy="51.2617" rx="4.66019" ry="4.66018" fill="#F1B96A"/>
<ellipse cx="4.66019" cy="4.66018" rx="4.66019" ry="4.66018" fill="#F1B96A"/>
<ellipse cx="284.272" cy="424.078" rx="4.66019" ry="4.66018" fill="#F1B96A"/>
<ellipse cx="284.272" cy="377.473" rx="4.66019" ry="4.66018" fill="#F1B96A"/>
<ellipse cx="284.272" cy="330.871" rx="4.66019" ry="4.66018" fill="#F1B96A"/>
<ellipse cx="284.272" cy="284.272" rx="4.66019" ry="4.66018" fill="#F1B96A"/>
<ellipse cx="284.272" cy="237.67" rx="4.66019" ry="4.66018" fill="#F1B96A"/>
<ellipse cx="284.272" cy="191.068" rx="4.66019" ry="4.66018" fill="#F1B96A"/>
<ellipse cx="284.272" cy="144.467" rx="4.66019" ry="4.66018" fill="#F1B96A"/>
<ellipse cx="284.272" cy="97.8633" rx="4.66019" ry="4.66018" fill="#F1B96A"/>
<ellipse cx="284.272" cy="51.2617" rx="4.66019" ry="4.66018" fill="#F1B96A"/>
<ellipse cx="284.272" cy="4.66018" rx="4.66019" ry="4.66018" fill="#F1B96A"/>
<ellipse cx="657.086" cy="424.078" rx="4.66019" ry="4.66018" fill="#F1B96A"/>
<ellipse cx="657.086" cy="377.473" rx="4.66019" ry="4.66018" fill="#F1B96A"/>
<ellipse cx="657.086" cy="330.871" rx="4.66019" ry="4.66018" fill="#F1B96A"/>
<ellipse cx="657.087" cy="284.272" rx="4.66019" ry="4.66018" fill="#F1B96A"/>
<ellipse cx="657.087" cy="237.67" rx="4.66019" ry="4.66018" fill="#F1B96A"/>
<ellipse cx="657.086" cy="191.068" rx="4.66019" ry="4.66018" fill="#F1B96A"/>
<ellipse cx="657.086" cy="144.467" rx="4.66019" ry="4.66018" fill="#F1B96A"/>
<ellipse cx="657.086" cy="97.8633" rx="4.66019" ry="4.66018" fill="#F1B96A"/>
<ellipse cx="657.086" cy="51.2617" rx="4.66019" ry="4.66018" fill="#F1B96A"/>
<ellipse cx="657.087" cy="4.66018" rx="4.66019" ry="4.66018" fill="#F1B96A"/>
<ellipse cx="1029.9" cy="424.078" rx="4.66019" ry="4.66018" fill="#F1B96A"/>
<ellipse cx="1029.9" cy="377.473" rx="4.66019" ry="4.66018" fill="#F1B96A"/>
<ellipse cx="1029.9" cy="330.871" rx="4.66019" ry="4.66018" fill="#F1B96A"/>
<ellipse cx="1029.9" cy="284.272" rx="4.66019" ry="4.66018" fill="#F1B96A"/>
<ellipse cx="1029.9" cy="237.67" rx="4.66019" ry="4.66018" fill="#F1B96A"/>
<ellipse cx="1029.9" cy="191.068" rx="4.66019" ry="4.66018" fill="#F1B96A"/>
<ellipse cx="1029.9" cy="144.467" rx="4.66019" ry="4.66018" fill="#F1B96A"/>
<ellipse cx="1029.9" cy="97.8633" rx="4.66019" ry="4.66018" fill="#F1B96A"/>
<ellipse cx="1029.9" cy="51.2617" rx="4.66019" ry="4.66018" fill="#F1B96A"/>
<ellipse cx="1029.9" cy="4.66018" rx="4.66019" ry="4.66018" fill="#F1B96A"/>
<ellipse cx="191.066" cy="424.078" rx="4.66019" ry="4.66018" fill="#F1B96A"/>
<ellipse cx="191.066" cy="377.473" rx="4.66019" ry="4.66018" fill="#F1B96A"/>
<ellipse cx="191.066" cy="330.871" rx="4.66019" ry="4.66018" fill="#F1B96A"/>
<ellipse cx="191.066" cy="284.272" rx="4.66019" ry="4.66018" fill="#F1B96A"/>
<ellipse cx="191.066" cy="237.67" rx="4.66019" ry="4.66018" fill="#F1B96A"/>
<ellipse cx="191.066" cy="191.068" rx="4.66019" ry="4.66018" fill="#F1B96A"/>
<ellipse cx="191.066" cy="144.467" rx="4.66019" ry="4.66018" fill="#F1B96A"/>
<ellipse cx="191.066" cy="97.8633" rx="4.66019" ry="4.66018" fill="#F1B96A"/>
<ellipse cx="191.066" cy="51.2617" rx="4.66019" ry="4.66018" fill="#F1B96A"/>
<ellipse cx="191.066" cy="4.66018" rx="4.66019" ry="4.66018" fill="#F1B96A"/>
<ellipse cx="563.882" cy="424.078" rx="4.66019" ry="4.66018" fill="#F1B96A"/>
<ellipse cx="563.882" cy="377.473" rx="4.66019" ry="4.66018" fill="#F1B96A"/>
<ellipse cx="563.882" cy="330.871" rx="4.66019" ry="4.66018" fill="#F1B96A"/>
<ellipse cx="563.882" cy="284.272" rx="4.66019" ry="4.66018" fill="#F1B96A"/>
<ellipse cx="563.882" cy="237.67" rx="4.66019" ry="4.66018" fill="#F1B96A"/>
<ellipse cx="563.882" cy="191.068" rx="4.66019" ry="4.66018" fill="#F1B96A"/>
<ellipse cx="563.882" cy="144.467" rx="4.66019" ry="4.66018" fill="#F1B96A"/>
<ellipse cx="563.882" cy="97.8633" rx="4.66019" ry="4.66018" fill="#F1B96A"/>
<ellipse cx="563.882" cy="51.2617" rx="4.66019" ry="4.66018" fill="#F1B96A"/>
<ellipse cx="563.882" cy="4.66018" rx="4.66019" ry="4.66018" fill="#F1B96A"/>
<ellipse cx="936.697" cy="424.078" rx="4.66019" ry="4.66018" fill="#F1B96A"/>
<ellipse cx="936.697" cy="377.473" rx="4.66019" ry="4.66018" fill="#F1B96A"/>
<ellipse cx="936.697" cy="330.871" rx="4.66019" ry="4.66018" fill="#F1B96A"/>
<ellipse cx="936.697" cy="284.272" rx="4.66019" ry="4.66018" fill="#F1B96A"/>
<ellipse cx="936.697" cy="237.67" rx="4.66019" ry="4.66018" fill="#F1B96A"/>
<ellipse cx="936.697" cy="191.068" rx="4.66019" ry="4.66018" fill="#F1B96A"/>
<ellipse cx="936.697" cy="144.467" rx="4.66019" ry="4.66018" fill="#F1B96A"/>
<ellipse cx="936.697" cy="97.8633" rx="4.66019" ry="4.66018" fill="#F1B96A"/>
<ellipse cx="936.697" cy="51.2617" rx="4.66019" ry="4.66018" fill="#F1B96A"/>
<ellipse cx="936.697" cy="4.66018" rx="4.66019" ry="4.66018" fill="#F1B96A"/>
<ellipse cx="470.68" cy="424.078" rx="4.66019" ry="4.66018" fill="#F1B96A"/>
<ellipse cx="470.68" cy="377.473" rx="4.66019" ry="4.66018" fill="#F1B96A"/>
<ellipse cx="470.68" cy="330.871" rx="4.66019" ry="4.66018" fill="#F1B96A"/>
<ellipse cx="470.68" cy="284.272" rx="4.66019" ry="4.66018" fill="#F1B96A"/>
<ellipse cx="470.68" cy="237.67" rx="4.66019" ry="4.66018" fill="#F1B96A"/>
<ellipse cx="470.68" cy="191.068" rx="4.66019" ry="4.66018" fill="#F1B96A"/>
<ellipse cx="470.68" cy="144.467" rx="4.66019" ry="4.66018" fill="#F1B96A"/>
<ellipse cx="470.68" cy="97.8633" rx="4.66019" ry="4.66018" fill="#F1B96A"/>
<ellipse cx="470.68" cy="51.2617" rx="4.66019" ry="4.66018" fill="#F1B96A"/>
<ellipse cx="470.68" cy="4.66018" rx="4.66019" ry="4.66018" fill="#F1B96A"/>
<ellipse cx="843.495" cy="424.078" rx="4.66019" ry="4.66018" fill="#F1B96A"/>
<ellipse cx="843.495" cy="377.473" rx="4.66019" ry="4.66018" fill="#F1B96A"/>
<ellipse cx="843.495" cy="330.871" rx="4.66019" ry="4.66018" fill="#F1B96A"/>
<ellipse cx="843.495" cy="284.272" rx="4.66019" ry="4.66018" fill="#F1B96A"/>
<ellipse cx="843.495" cy="237.67" rx="4.66019" ry="4.66018" fill="#F1B96A"/>
<ellipse cx="843.495" cy="191.068" rx="4.66019" ry="4.66018" fill="#F1B96A"/>
<ellipse cx="843.495" cy="144.467" rx="4.66019" ry="4.66018" fill="#F1B96A"/>
<ellipse cx="843.495" cy="97.8633" rx="4.66019" ry="4.66018" fill="#F1B96A"/>
<ellipse cx="843.495" cy="51.2617" rx="4.66019" ry="4.66018" fill="#F1B96A"/>
<ellipse cx="843.495" cy="4.66018" rx="4.66019" ry="4.66018" fill="#F1B96A"/>
<ellipse cx="97.8643" cy="424.078" rx="4.66019" ry="4.66018" fill="#F1B96A"/>
<ellipse cx="97.8643" cy="377.473" rx="4.66019" ry="4.66018" fill="#F1B96A"/>
<ellipse cx="97.8643" cy="330.871" rx="4.66019" ry="4.66018" fill="#F1B96A"/>
<ellipse cx="97.8643" cy="284.272" rx="4.66019" ry="4.66018" fill="#F1B96A"/>
<ellipse cx="97.8643" cy="237.67" rx="4.66019" ry="4.66018" fill="#F1B96A"/>
<ellipse cx="97.8643" cy="191.068" rx="4.66019" ry="4.66018" fill="#F1B96A"/>
<ellipse cx="97.8643" cy="144.467" rx="4.66019" ry="4.66018" fill="#F1B96A"/>
<ellipse cx="97.8643" cy="97.8633" rx="4.66019" ry="4.66018" fill="#F1B96A"/>
<ellipse cx="97.8643" cy="51.2617" rx="4.66019" ry="4.66018" fill="#F1B96A"/>
<ellipse cx="97.8643" cy="4.66018" rx="4.66019" ry="4.66018" fill="#F1B96A"/>
<ellipse cx="377.476" cy="424.078" rx="4.66019" ry="4.66018" fill="#F1B96A"/>
<ellipse cx="377.476" cy="377.473" rx="4.66019" ry="4.66018" fill="#F1B96A"/>
<ellipse cx="377.476" cy="330.871" rx="4.66019" ry="4.66018" fill="#F1B96A"/>
<ellipse cx="377.476" cy="284.272" rx="4.66019" ry="4.66018" fill="#F1B96A"/>
<ellipse cx="377.476" cy="237.67" rx="4.66019" ry="4.66018" fill="#F1B96A"/>
<ellipse cx="377.476" cy="191.068" rx="4.66019" ry="4.66018" fill="#F1B96A"/>
<ellipse cx="377.476" cy="144.467" rx="4.66019" ry="4.66018" fill="#F1B96A"/>
<ellipse cx="377.476" cy="97.8633" rx="4.66019" ry="4.66018" fill="#F1B96A"/>
<ellipse cx="377.476" cy="51.2617" rx="4.66019" ry="4.66018" fill="#F1B96A"/>
<ellipse cx="377.476" cy="4.66018" rx="4.66019" ry="4.66018" fill="#F1B96A"/>
<ellipse cx="750.291" cy="424.078" rx="4.66019" ry="4.66018" fill="#F1B96A"/>
<ellipse cx="750.291" cy="377.473" rx="4.66019" ry="4.66018" fill="#F1B96A"/>
<ellipse cx="750.291" cy="330.871" rx="4.66019" ry="4.66018" fill="#F1B96A"/>
<ellipse cx="750.29" cy="284.272" rx="4.66019" ry="4.66018" fill="#F1B96A"/>
<ellipse cx="750.29" cy="237.67" rx="4.66019" ry="4.66018" fill="#F1B96A"/>
<ellipse cx="750.291" cy="191.068" rx="4.66019" ry="4.66018" fill="#F1B96A"/>
<ellipse cx="750.291" cy="144.467" rx="4.66019" ry="4.66018" fill="#F1B96A"/>
<ellipse cx="750.291" cy="97.8633" rx="4.66019" ry="4.66018" fill="#F1B96A"/>
<ellipse cx="750.291" cy="51.2617" rx="4.66019" ry="4.66018" fill="#F1B96A"/>
<ellipse cx="750.29" cy="4.66018" rx="4.66019" ry="4.66018" fill="#F1B96A"/>
<ellipse cx="51.2618" cy="424.078" rx="4.66019" ry="4.66018" fill="#F1B96A"/>
<ellipse cx="51.2618" cy="377.473" rx="4.66019" ry="4.66018" fill="#F1B96A"/>
<ellipse cx="51.2618" cy="330.871" rx="4.66019" ry="4.66018" fill="#F1B96A"/>
<ellipse cx="51.2618" cy="284.272" rx="4.66019" ry="4.66018" fill="#F1B96A"/>
<ellipse cx="51.2618" cy="237.67" rx="4.66019" ry="4.66018" fill="#F1B96A"/>
<ellipse cx="51.2618" cy="191.068" rx="4.66019" ry="4.66018" fill="#F1B96A"/>
<ellipse cx="51.2618" cy="144.467" rx="4.66019" ry="4.66018" fill="#F1B96A"/>
<ellipse cx="51.2618" cy="97.8633" rx="4.66019" ry="4.66018" fill="#F1B96A"/>
<ellipse cx="51.2618" cy="51.2617" rx="4.66019" ry="4.66018" fill="#F1B96A"/>
<ellipse cx="51.2618" cy="4.66018" rx="4.66019" ry="4.66018" fill="#F1B96A"/>
<ellipse cx="330.874" cy="424.078" rx="4.66019" ry="4.66018" fill="#F1B96A"/>
<ellipse cx="330.874" cy="377.473" rx="4.66019" ry="4.66018" fill="#F1B96A"/>
<ellipse cx="330.874" cy="330.871" rx="4.66019" ry="4.66018" fill="#F1B96A"/>
<ellipse cx="330.874" cy="284.272" rx="4.66019" ry="4.66018" fill="#F1B96A"/>
<ellipse cx="330.874" cy="237.67" rx="4.66019" ry="4.66018" fill="#F1B96A"/>
<ellipse cx="330.874" cy="191.068" rx="4.66019" ry="4.66018" fill="#F1B96A"/>
<ellipse cx="330.874" cy="144.467" rx="4.66019" ry="4.66018" fill="#F1B96A"/>
<ellipse cx="330.874" cy="97.8633" rx="4.66019" ry="4.66018" fill="#F1B96A"/>
<ellipse cx="330.874" cy="51.2617" rx="4.66019" ry="4.66018" fill="#F1B96A"/>
<ellipse cx="330.874" cy="4.66018" rx="4.66019" ry="4.66018" fill="#F1B96A"/>
<ellipse cx="703.69" cy="424.078" rx="4.66019" ry="4.66018" fill="#F1B96A"/>
<ellipse cx="703.69" cy="377.473" rx="4.66019" ry="4.66018" fill="#F1B96A"/>
<ellipse cx="703.69" cy="330.871" rx="4.66019" ry="4.66018" fill="#F1B96A"/>
<ellipse cx="703.69" cy="284.272" rx="4.66019" ry="4.66018" fill="#F1B96A"/>
<ellipse cx="703.69" cy="237.67" rx="4.66019" ry="4.66018" fill="#F1B96A"/>
<ellipse cx="703.69" cy="191.068" rx="4.66019" ry="4.66018" fill="#F1B96A"/>
<ellipse cx="703.69" cy="144.467" rx="4.66019" ry="4.66018" fill="#F1B96A"/>
<ellipse cx="703.69" cy="97.8633" rx="4.66019" ry="4.66018" fill="#F1B96A"/>
<ellipse cx="703.69" cy="51.2617" rx="4.66019" ry="4.66018" fill="#F1B96A"/>
<ellipse cx="703.69" cy="4.66018" rx="4.66019" ry="4.66018" fill="#F1B96A"/>
<ellipse cx="1076.5" cy="424.078" rx="4.66019" ry="4.66018" fill="#F1B96A"/>
<ellipse cx="1076.5" cy="377.473" rx="4.66019" ry="4.66018" fill="#F1B96A"/>
<ellipse cx="1076.5" cy="330.871" rx="4.66019" ry="4.66018" fill="#F1B96A"/>
<ellipse cx="1076.5" cy="284.272" rx="4.66019" ry="4.66018" fill="#F1B96A"/>
<ellipse cx="1076.5" cy="237.67" rx="4.66019" ry="4.66018" fill="#F1B96A"/>
<ellipse cx="1076.5" cy="191.068" rx="4.66019" ry="4.66018" fill="#F1B96A"/>
<ellipse cx="1076.5" cy="144.467" rx="4.66019" ry="4.66018" fill="#F1B96A"/>
<ellipse cx="1076.5" cy="97.8633" rx="4.66019" ry="4.66018" fill="#F1B96A"/>
<ellipse cx="1076.5" cy="51.2617" rx="4.66019" ry="4.66018" fill="#F1B96A"/>
<ellipse cx="1076.5" cy="4.66018" rx="4.66019" ry="4.66018" fill="#F1B96A"/>
<ellipse cx="237.67" cy="424.078" rx="4.66019" ry="4.66018" fill="#F1B96A"/>
<ellipse cx="237.67" cy="377.473" rx="4.66019" ry="4.66018" fill="#F1B96A"/>
<ellipse cx="237.67" cy="330.871" rx="4.66019" ry="4.66018" fill="#F1B96A"/>
<ellipse cx="237.67" cy="284.272" rx="4.66019" ry="4.66018" fill="#F1B96A"/>
<ellipse cx="237.67" cy="237.67" rx="4.66019" ry="4.66018" fill="#F1B96A"/>
<ellipse cx="237.67" cy="191.068" rx="4.66019" ry="4.66018" fill="#F1B96A"/>
<ellipse cx="237.67" cy="144.467" rx="4.66019" ry="4.66018" fill="#F1B96A"/>
<ellipse cx="237.67" cy="97.8633" rx="4.66019" ry="4.66018" fill="#F1B96A"/>
<ellipse cx="237.67" cy="51.2617" rx="4.66019" ry="4.66018" fill="#F1B96A"/>
<ellipse cx="237.67" cy="4.66018" rx="4.66019" ry="4.66018" fill="#F1B96A"/>
<ellipse cx="610.485" cy="424.078" rx="4.66019" ry="4.66018" fill="#F1B96A"/>
<ellipse cx="610.485" cy="377.473" rx="4.66019" ry="4.66018" fill="#F1B96A"/>
<ellipse cx="610.485" cy="330.871" rx="4.66019" ry="4.66018" fill="#F1B96A"/>
<ellipse cx="610.484" cy="284.272" rx="4.66019" ry="4.66018" fill="#F1B96A"/>
<ellipse cx="610.484" cy="237.67" rx="4.66019" ry="4.66018" fill="#F1B96A"/>
<ellipse cx="610.485" cy="191.068" rx="4.66019" ry="4.66018" fill="#F1B96A"/>
<ellipse cx="610.485" cy="144.467" rx="4.66019" ry="4.66018" fill="#F1B96A"/>
<ellipse cx="610.485" cy="97.8633" rx="4.66019" ry="4.66018" fill="#F1B96A"/>
<ellipse cx="610.485" cy="51.2617" rx="4.66019" ry="4.66018" fill="#F1B96A"/>
<ellipse cx="610.484" cy="4.66018" rx="4.66019" ry="4.66018" fill="#F1B96A"/>
<ellipse cx="983.301" cy="424.078" rx="4.66019" ry="4.66018" fill="#F1B96A"/>
<ellipse cx="983.301" cy="377.473" rx="4.66019" ry="4.66018" fill="#F1B96A"/>
<ellipse cx="983.301" cy="330.871" rx="4.66019" ry="4.66018" fill="#F1B96A"/>
<ellipse cx="983.301" cy="284.272" rx="4.66019" ry="4.66018" fill="#F1B96A"/>
<ellipse cx="983.301" cy="237.67" rx="4.66019" ry="4.66018" fill="#F1B96A"/>
<ellipse cx="983.301" cy="191.068" rx="4.66019" ry="4.66018" fill="#F1B96A"/>
<ellipse cx="983.301" cy="144.467" rx="4.66019" ry="4.66018" fill="#F1B96A"/>
<ellipse cx="983.301" cy="97.8633" rx="4.66019" ry="4.66018" fill="#F1B96A"/>
<ellipse cx="983.301" cy="51.2617" rx="4.66019" ry="4.66018" fill="#F1B96A"/>
<ellipse cx="983.301" cy="4.66018" rx="4.66019" ry="4.66018" fill="#F1B96A"/>
<ellipse cx="517.281" cy="424.078" rx="4.66019" ry="4.66018" fill="#F1B96A"/>
<ellipse cx="517.281" cy="377.473" rx="4.66019" ry="4.66018" fill="#F1B96A"/>
<ellipse cx="517.281" cy="330.871" rx="4.66019" ry="4.66018" fill="#F1B96A"/>
<ellipse cx="517.281" cy="284.272" rx="4.66019" ry="4.66018" fill="#F1B96A"/>
<ellipse cx="517.281" cy="237.67" rx="4.66019" ry="4.66018" fill="#F1B96A"/>
<ellipse cx="517.281" cy="191.068" rx="4.66019" ry="4.66018" fill="#F1B96A"/>
<ellipse cx="517.281" cy="144.467" rx="4.66019" ry="4.66018" fill="#F1B96A"/>
<ellipse cx="517.281" cy="97.8633" rx="4.66019" ry="4.66018" fill="#F1B96A"/>
<ellipse cx="517.281" cy="51.2617" rx="4.66019" ry="4.66018" fill="#F1B96A"/>
<ellipse cx="517.281" cy="4.66018" rx="4.66019" ry="4.66018" fill="#F1B96A"/>
<ellipse cx="890.096" cy="424.078" rx="4.66019" ry="4.66018" fill="#F1B96A"/>
<ellipse cx="890.096" cy="377.473" rx="4.66019" ry="4.66018" fill="#F1B96A"/>
<ellipse cx="890.096" cy="330.871" rx="4.66019" ry="4.66018" fill="#F1B96A"/>
<ellipse cx="890.096" cy="284.272" rx="4.66019" ry="4.66018" fill="#F1B96A"/>
<ellipse cx="890.096" cy="237.67" rx="4.66019" ry="4.66018" fill="#F1B96A"/>
<ellipse cx="890.096" cy="191.068" rx="4.66019" ry="4.66018" fill="#F1B96A"/>
<ellipse cx="890.096" cy="144.467" rx="4.66019" ry="4.66018" fill="#F1B96A"/>
<ellipse cx="890.096" cy="97.8633" rx="4.66019" ry="4.66018" fill="#F1B96A"/>
<ellipse cx="890.096" cy="51.2617" rx="4.66019" ry="4.66018" fill="#F1B96A"/>
<ellipse cx="890.096" cy="4.66018" rx="4.66019" ry="4.66018" fill="#F1B96A"/>
<ellipse cx="144.466" cy="424.078" rx="4.66019" ry="4.66018" fill="#F1B96A"/>
<ellipse cx="144.466" cy="377.473" rx="4.66019" ry="4.66018" fill="#F1B96A"/>
<ellipse cx="144.466" cy="330.871" rx="4.66019" ry="4.66018" fill="#F1B96A"/>
<ellipse cx="144.466" cy="284.272" rx="4.66019" ry="4.66018" fill="#F1B96A"/>
<ellipse cx="144.466" cy="237.67" rx="4.66019" ry="4.66018" fill="#F1B96A"/>
<ellipse cx="144.466" cy="191.068" rx="4.66019" ry="4.66018" fill="#F1B96A"/>
<ellipse cx="144.466" cy="144.467" rx="4.66019" ry="4.66018" fill="#F1B96A"/>
<ellipse cx="144.466" cy="97.8633" rx="4.66019" ry="4.66018" fill="#F1B96A"/>
<ellipse cx="144.466" cy="51.2617" rx="4.66019" ry="4.66018" fill="#F1B96A"/>
<ellipse cx="144.466" cy="4.66018" rx="4.66019" ry="4.66018" fill="#F1B96A"/>
<ellipse cx="424.076" cy="424.078" rx="4.66019" ry="4.66018" fill="#F1B96A"/>
<ellipse cx="424.076" cy="377.473" rx="4.66019" ry="4.66018" fill="#F1B96A"/>
<ellipse cx="424.076" cy="330.871" rx="4.66019" ry="4.66018" fill="#F1B96A"/>
<ellipse cx="424.076" cy="284.272" rx="4.66019" ry="4.66018" fill="#F1B96A"/>
<ellipse cx="424.076" cy="237.67" rx="4.66019" ry="4.66018" fill="#F1B96A"/>
<ellipse cx="424.076" cy="191.068" rx="4.66019" ry="4.66018" fill="#F1B96A"/>
<ellipse cx="424.076" cy="144.467" rx="4.66019" ry="4.66018" fill="#F1B96A"/>
<ellipse cx="424.076" cy="97.8633" rx="4.66019" ry="4.66018" fill="#F1B96A"/>
<ellipse cx="424.076" cy="51.2617" rx="4.66019" ry="4.66018" fill="#F1B96A"/>
<ellipse cx="424.076" cy="4.66018" rx="4.66019" ry="4.66018" fill="#F1B96A"/>
<ellipse cx="796.892" cy="424.078" rx="4.66019" ry="4.66018" fill="#F1B96A"/>
<ellipse cx="796.892" cy="377.473" rx="4.66019" ry="4.66018" fill="#F1B96A"/>
<ellipse cx="796.892" cy="330.871" rx="4.66019" ry="4.66018" fill="#F1B96A"/>
<ellipse cx="796.892" cy="284.272" rx="4.66019" ry="4.66018" fill="#F1B96A"/>
<ellipse cx="796.892" cy="237.67" rx="4.66019" ry="4.66018" fill="#F1B96A"/>
<ellipse cx="796.892" cy="191.068" rx="4.66019" ry="4.66018" fill="#F1B96A"/>
<ellipse cx="796.892" cy="144.467" rx="4.66019" ry="4.66018" fill="#F1B96A"/>
<ellipse cx="796.892" cy="97.8633" rx="4.66019" ry="4.66018" fill="#F1B96A"/>
<ellipse cx="796.892" cy="51.2617" rx="4.66019" ry="4.66018" fill="#F1B96A"/>
<ellipse cx="796.892" cy="4.66018" rx="4.66019" ry="4.66018" fill="#F1B96A"/>
<ellipse cx="1123.11" cy="424.078" rx="4.66019" ry="4.66018" fill="#F1B96A"/>
<ellipse cx="1123.11" cy="377.473" rx="4.66019" ry="4.66018" fill="#F1B96A"/>
<ellipse cx="1123.11" cy="330.871" rx="4.66019" ry="4.66018" fill="#F1B96A"/>
<ellipse cx="1123.11" cy="284.272" rx="4.66019" ry="4.66018" fill="#F1B96A"/>
<ellipse cx="1123.11" cy="237.67" rx="4.66019" ry="4.66018" fill="#F1B96A"/>
<ellipse cx="1123.11" cy="191.068" rx="4.66019" ry="4.66018" fill="#F1B96A"/>
<ellipse cx="1123.11" cy="144.467" rx="4.66019" ry="4.66018" fill="#F1B96A"/>
<ellipse cx="1123.11" cy="97.8633" rx="4.66019" ry="4.66018" fill="#F1B96A"/>
<ellipse cx="1123.11" cy="51.2617" rx="4.66019" ry="4.66018" fill="#F1B96A"/>
<ellipse cx="1123.11" cy="4.66018" rx="4.66019" ry="4.66018" fill="#F1B96A"/>
<ellipse cx="1169.71" cy="424.078" rx="4.66019" ry="4.66018" fill="#F1B96A"/>
<ellipse cx="1169.71" cy="377.473" rx="4.66019" ry="4.66018" fill="#F1B96A"/>
<ellipse cx="1169.71" cy="330.871" rx="4.66019" ry="4.66018" fill="#F1B96A"/>
<ellipse cx="1169.71" cy="284.272" rx="4.66019" ry="4.66018" fill="#F1B96A"/>
<ellipse cx="1169.71" cy="237.67" rx="4.66019" ry="4.66018" fill="#F1B96A"/>
<ellipse cx="1169.71" cy="191.068" rx="4.66019" ry="4.66018" fill="#F1B96A"/>
<ellipse cx="1169.71" cy="144.467" rx="4.66019" ry="4.66018" fill="#F1B96A"/>
<ellipse cx="1169.71" cy="97.8633" rx="4.66019" ry="4.66018" fill="#F1B96A"/>
<ellipse cx="1169.71" cy="51.2617" rx="4.66019" ry="4.66018" fill="#F1B96A"/>
<ellipse cx="1169.71" cy="4.66018" rx="4.66019" ry="4.66018" fill="#F1B96A"/>
<ellipse cx="1449.32" cy="424.078" rx="4.66019" ry="4.66018" fill="#F1B96A"/>
<ellipse cx="1449.32" cy="377.473" rx="4.66019" ry="4.66018" fill="#F1B96A"/>
<ellipse cx="1449.32" cy="330.871" rx="4.66019" ry="4.66018" fill="#F1B96A"/>
<ellipse cx="1449.32" cy="284.272" rx="4.66019" ry="4.66018" fill="#F1B96A"/>
<ellipse cx="1449.32" cy="237.67" rx="4.66019" ry="4.66018" fill="#F1B96A"/>
<ellipse cx="1449.32" cy="191.068" rx="4.66019" ry="4.66018" fill="#F1B96A"/>
<ellipse cx="1449.32" cy="144.467" rx="4.66019" ry="4.66018" fill="#F1B96A"/>
<ellipse cx="1449.32" cy="97.8633" rx="4.66019" ry="4.66018" fill="#F1B96A"/>
<ellipse cx="1449.32" cy="51.2617" rx="4.66019" ry="4.66018" fill="#F1B96A"/>
<ellipse cx="1449.32" cy="4.66018" rx="4.66019" ry="4.66018" fill="#F1B96A"/>
<ellipse cx="1822.13" cy="424.078" rx="4.66019" ry="4.66018" fill="#F1B96A"/>
<ellipse cx="1822.13" cy="377.473" rx="4.66019" ry="4.66018" fill="#F1B96A"/>
<ellipse cx="1822.13" cy="330.871" rx="4.66019" ry="4.66018" fill="#F1B96A"/>
<ellipse cx="1822.14" cy="284.272" rx="4.66019" ry="4.66018" fill="#F1B96A"/>
<ellipse cx="1822.14" cy="237.67" rx="4.66019" ry="4.66018" fill="#F1B96A"/>
<ellipse cx="1822.13" cy="191.068" rx="4.66019" ry="4.66018" fill="#F1B96A"/>
<ellipse cx="1822.13" cy="144.467" rx="4.66019" ry="4.66018" fill="#F1B96A"/>
<ellipse cx="1822.13" cy="97.8633" rx="4.66019" ry="4.66018" fill="#F1B96A"/>
<ellipse cx="1822.13" cy="51.2617" rx="4.66019" ry="4.66018" fill="#F1B96A"/>
<ellipse cx="1822.14" cy="4.66018" rx="4.66019" ry="4.66018" fill="#F1B96A"/>
<ellipse cx="1356.12" cy="424.078" rx="4.66019" ry="4.66018" fill="#F1B96A"/>
<ellipse cx="1356.12" cy="377.473" rx="4.66019" ry="4.66018" fill="#F1B96A"/>
<ellipse cx="1356.12" cy="330.871" rx="4.66019" ry="4.66018" fill="#F1B96A"/>
<ellipse cx="1356.12" cy="284.272" rx="4.66019" ry="4.66018" fill="#F1B96A"/>
<ellipse cx="1356.12" cy="237.67" rx="4.66019" ry="4.66018" fill="#F1B96A"/>
<ellipse cx="1356.12" cy="191.068" rx="4.66019" ry="4.66018" fill="#F1B96A"/>
<ellipse cx="1356.12" cy="144.467" rx="4.66019" ry="4.66018" fill="#F1B96A"/>
<ellipse cx="1356.12" cy="97.8633" rx="4.66019" ry="4.66018" fill="#F1B96A"/>
<ellipse cx="1356.12" cy="51.2617" rx="4.66019" ry="4.66018" fill="#F1B96A"/>
<ellipse cx="1356.12" cy="4.66018" rx="4.66019" ry="4.66018" fill="#F1B96A"/>
<ellipse cx="1728.93" cy="424.078" rx="4.66019" ry="4.66018" fill="#F1B96A"/>
<ellipse cx="1728.93" cy="377.473" rx="4.66019" ry="4.66018" fill="#F1B96A"/>
<ellipse cx="1728.93" cy="330.871" rx="4.66019" ry="4.66018" fill="#F1B96A"/>
<ellipse cx="1728.93" cy="284.272" rx="4.66019" ry="4.66018" fill="#F1B96A"/>
<ellipse cx="1728.93" cy="237.67" rx="4.66019" ry="4.66018" fill="#F1B96A"/>
<ellipse cx="1728.93" cy="191.068" rx="4.66019" ry="4.66018" fill="#F1B96A"/>
<ellipse cx="1728.93" cy="144.467" rx="4.66019" ry="4.66018" fill="#F1B96A"/>
<ellipse cx="1728.93" cy="97.8633" rx="4.66019" ry="4.66018" fill="#F1B96A"/>
<ellipse cx="1728.93" cy="51.2617" rx="4.66019" ry="4.66018" fill="#F1B96A"/>
<ellipse cx="1728.93" cy="4.66018" rx="4.66019" ry="4.66018" fill="#F1B96A"/>
<ellipse cx="1635.73" cy="424.078" rx="4.66019" ry="4.66018" fill="#F1B96A"/>
<ellipse cx="1635.73" cy="377.473" rx="4.66019" ry="4.66018" fill="#F1B96A"/>
<ellipse cx="1635.73" cy="330.871" rx="4.66019" ry="4.66018" fill="#F1B96A"/>
<ellipse cx="1635.73" cy="284.272" rx="4.66019" ry="4.66018" fill="#F1B96A"/>
<ellipse cx="1635.73" cy="237.67" rx="4.66019" ry="4.66018" fill="#F1B96A"/>
<ellipse cx="1635.73" cy="191.068" rx="4.66019" ry="4.66018" fill="#F1B96A"/>
<ellipse cx="1635.73" cy="144.467" rx="4.66019" ry="4.66018" fill="#F1B96A"/>
<ellipse cx="1635.73" cy="97.8633" rx="4.66019" ry="4.66018" fill="#F1B96A"/>
<ellipse cx="1635.73" cy="51.2617" rx="4.66019" ry="4.66018" fill="#F1B96A"/>
<ellipse cx="1635.73" cy="4.66018" rx="4.66019" ry="4.66018" fill="#F1B96A"/>
<ellipse cx="1262.91" cy="424.078" rx="4.66019" ry="4.66018" fill="#F1B96A"/>
<ellipse cx="1262.91" cy="377.473" rx="4.66019" ry="4.66018" fill="#F1B96A"/>
<ellipse cx="1262.91" cy="330.871" rx="4.66019" ry="4.66018" fill="#F1B96A"/>
<ellipse cx="1262.91" cy="284.272" rx="4.66019" ry="4.66018" fill="#F1B96A"/>
<ellipse cx="1262.91" cy="237.67" rx="4.66019" ry="4.66018" fill="#F1B96A"/>
<ellipse cx="1262.91" cy="191.068" rx="4.66019" ry="4.66018" fill="#F1B96A"/>
<ellipse cx="1262.91" cy="144.467" rx="4.66019" ry="4.66018" fill="#F1B96A"/>
<ellipse cx="1262.91" cy="97.8633" rx="4.66019" ry="4.66018" fill="#F1B96A"/>
<ellipse cx="1262.91" cy="51.2617" rx="4.66019" ry="4.66018" fill="#F1B96A"/>
<ellipse cx="1262.91" cy="4.66018" rx="4.66019" ry="4.66018" fill="#F1B96A"/>
<ellipse cx="1542.52" cy="424.078" rx="4.66019" ry="4.66018" fill="#F1B96A"/>
<ellipse cx="1542.52" cy="377.473" rx="4.66019" ry="4.66018" fill="#F1B96A"/>
<ellipse cx="1542.52" cy="330.871" rx="4.66019" ry="4.66018" fill="#F1B96A"/>
<ellipse cx="1542.52" cy="284.272" rx="4.66019" ry="4.66018" fill="#F1B96A"/>
<ellipse cx="1542.52" cy="237.67" rx="4.66019" ry="4.66018" fill="#F1B96A"/>
<ellipse cx="1542.52" cy="191.068" rx="4.66019" ry="4.66018" fill="#F1B96A"/>
<ellipse cx="1542.52" cy="144.467" rx="4.66019" ry="4.66018" fill="#F1B96A"/>
<ellipse cx="1542.52" cy="97.8633" rx="4.66019" ry="4.66018" fill="#F1B96A"/>
<ellipse cx="1542.52" cy="51.2617" rx="4.66019" ry="4.66018" fill="#F1B96A"/>
<ellipse cx="1542.52" cy="4.66018" rx="4.66019" ry="4.66018" fill="#F1B96A"/>
<ellipse cx="1915.34" cy="424.078" rx="4.66019" ry="4.66018" fill="#F1B96A"/>
<ellipse cx="1915.34" cy="377.473" rx="4.66019" ry="4.66018" fill="#F1B96A"/>
<ellipse cx="1915.34" cy="330.871" rx="4.66019" ry="4.66018" fill="#F1B96A"/>
<ellipse cx="1915.34" cy="284.272" rx="4.66019" ry="4.66018" fill="#F1B96A"/>
<ellipse cx="1915.34" cy="237.67" rx="4.66019" ry="4.66018" fill="#F1B96A"/>
<ellipse cx="1915.34" cy="191.068" rx="4.66019" ry="4.66018" fill="#F1B96A"/>
<ellipse cx="1915.34" cy="144.467" rx="4.66019" ry="4.66018" fill="#F1B96A"/>
<ellipse cx="1915.34" cy="97.8633" rx="4.66019" ry="4.66018" fill="#F1B96A"/>
<ellipse cx="1915.34" cy="51.2617" rx="4.66019" ry="4.66018" fill="#F1B96A"/>
<ellipse cx="1915.34" cy="4.66018" rx="4.66019" ry="4.66018" fill="#F1B96A"/>
<ellipse cx="1216.31" cy="424.078" rx="4.66019" ry="4.66018" fill="#F1B96A"/>
<ellipse cx="1216.31" cy="377.473" rx="4.66019" ry="4.66018" fill="#F1B96A"/>
<ellipse cx="1216.31" cy="330.871" rx="4.66019" ry="4.66018" fill="#F1B96A"/>
<ellipse cx="1216.31" cy="284.272" rx="4.66019" ry="4.66018" fill="#F1B96A"/>
<ellipse cx="1216.31" cy="237.67" rx="4.66019" ry="4.66018" fill="#F1B96A"/>
<ellipse cx="1216.31" cy="191.068" rx="4.66019" ry="4.66018" fill="#F1B96A"/>
<ellipse cx="1216.31" cy="144.467" rx="4.66019" ry="4.66018" fill="#F1B96A"/>
<ellipse cx="1216.31" cy="97.8633" rx="4.66019" ry="4.66018" fill="#F1B96A"/>
<ellipse cx="1216.31" cy="51.2617" rx="4.66019" ry="4.66018" fill="#F1B96A"/>
<ellipse cx="1216.31" cy="4.66018" rx="4.66019" ry="4.66018" fill="#F1B96A"/>
<ellipse cx="1495.92" cy="424.078" rx="4.66019" ry="4.66018" fill="#F1B96A"/>
<ellipse cx="1495.92" cy="377.473" rx="4.66019" ry="4.66018" fill="#F1B96A"/>
<ellipse cx="1495.92" cy="330.871" rx="4.66019" ry="4.66018" fill="#F1B96A"/>
<ellipse cx="1495.92" cy="284.272" rx="4.66019" ry="4.66018" fill="#F1B96A"/>
<ellipse cx="1495.92" cy="237.67" rx="4.66019" ry="4.66018" fill="#F1B96A"/>
<ellipse cx="1495.92" cy="191.068" rx="4.66019" ry="4.66018" fill="#F1B96A"/>
<ellipse cx="1495.92" cy="144.467" rx="4.66019" ry="4.66018" fill="#F1B96A"/>
<ellipse cx="1495.92" cy="97.8633" rx="4.66019" ry="4.66018" fill="#F1B96A"/>
<ellipse cx="1495.92" cy="51.2617" rx="4.66019" ry="4.66018" fill="#F1B96A"/>
<ellipse cx="1495.92" cy="4.66018" rx="4.66019" ry="4.66018" fill="#F1B96A"/>
<ellipse cx="1868.74" cy="424.078" rx="4.66019" ry="4.66018" fill="#F1B96A"/>
<ellipse cx="1868.74" cy="377.473" rx="4.66019" ry="4.66018" fill="#F1B96A"/>
<ellipse cx="1868.74" cy="330.871" rx="4.66019" ry="4.66018" fill="#F1B96A"/>
<ellipse cx="1868.74" cy="284.272" rx="4.66019" ry="4.66018" fill="#F1B96A"/>
<ellipse cx="1868.74" cy="237.67" rx="4.66019" ry="4.66018" fill="#F1B96A"/>
<ellipse cx="1868.74" cy="191.068" rx="4.66019" ry="4.66018" fill="#F1B96A"/>
<ellipse cx="1868.74" cy="144.467" rx="4.66019" ry="4.66018" fill="#F1B96A"/>
<ellipse cx="1868.74" cy="97.8633" rx="4.66019" ry="4.66018" fill="#F1B96A"/>
<ellipse cx="1868.74" cy="51.2617" rx="4.66019" ry="4.66018" fill="#F1B96A"/>
<ellipse cx="1868.74" cy="4.66018" rx="4.66019" ry="4.66018" fill="#F1B96A"/>
<ellipse cx="1402.72" cy="424.078" rx="4.66019" ry="4.66018" fill="#F1B96A"/>
<ellipse cx="1402.72" cy="377.473" rx="4.66019" ry="4.66018" fill="#F1B96A"/>
<ellipse cx="1402.72" cy="330.871" rx="4.66019" ry="4.66018" fill="#F1B96A"/>
<ellipse cx="1402.72" cy="284.272" rx="4.66019" ry="4.66018" fill="#F1B96A"/>
<ellipse cx="1402.72" cy="237.67" rx="4.66019" ry="4.66018" fill="#F1B96A"/>
<ellipse cx="1402.72" cy="191.068" rx="4.66019" ry="4.66018" fill="#F1B96A"/>
<ellipse cx="1402.72" cy="144.467" rx="4.66019" ry="4.66018" fill="#F1B96A"/>
<ellipse cx="1402.72" cy="97.8633" rx="4.66019" ry="4.66018" fill="#F1B96A"/>
<ellipse cx="1402.72" cy="51.2617" rx="4.66019" ry="4.66018" fill="#F1B96A"/>
<ellipse cx="1402.72" cy="4.66018" rx="4.66019" ry="4.66018" fill="#F1B96A"/>
<ellipse cx="1775.53" cy="424.078" rx="4.66019" ry="4.66018" fill="#F1B96A"/>
<ellipse cx="1775.53" cy="377.473" rx="4.66019" ry="4.66018" fill="#F1B96A"/>
<ellipse cx="1775.53" cy="330.871" rx="4.66019" ry="4.66018" fill="#F1B96A"/>
<ellipse cx="1775.53" cy="284.272" rx="4.66019" ry="4.66018" fill="#F1B96A"/>
<ellipse cx="1775.53" cy="237.67" rx="4.66019" ry="4.66018" fill="#F1B96A"/>
<ellipse cx="1775.53" cy="191.068" rx="4.66019" ry="4.66018" fill="#F1B96A"/>
<ellipse cx="1775.53" cy="144.467" rx="4.66019" ry="4.66018" fill="#F1B96A"/>
<ellipse cx="1775.53" cy="97.8633" rx="4.66019" ry="4.66018" fill="#F1B96A"/>
<ellipse cx="1775.53" cy="51.2617" rx="4.66019" ry="4.66018" fill="#F1B96A"/>
<ellipse cx="1775.53" cy="4.66018" rx="4.66019" ry="4.66018" fill="#F1B96A"/>
<ellipse cx="1682.33" cy="424.078" rx="4.66019" ry="4.66018" fill="#F1B96A"/>
<ellipse cx="1682.33" cy="377.473" rx="4.66019" ry="4.66018" fill="#F1B96A"/>
<ellipse cx="1682.33" cy="330.871" rx="4.66019" ry="4.66018" fill="#F1B96A"/>
<ellipse cx="1682.33" cy="284.272" rx="4.66019" ry="4.66018" fill="#F1B96A"/>
<ellipse cx="1682.33" cy="237.67" rx="4.66019" ry="4.66018" fill="#F1B96A"/>
<ellipse cx="1682.33" cy="191.068" rx="4.66019" ry="4.66018" fill="#F1B96A"/>
<ellipse cx="1682.33" cy="144.467" rx="4.66019" ry="4.66018" fill="#F1B96A"/>
<ellipse cx="1682.33" cy="97.8633" rx="4.66019" ry="4.66018" fill="#F1B96A"/>
<ellipse cx="1682.33" cy="51.2617" rx="4.66019" ry="4.66018" fill="#F1B96A"/>
<ellipse cx="1682.33" cy="4.66018" rx="4.66019" ry="4.66018" fill="#F1B96A"/>
<ellipse cx="1309.51" cy="424.078" rx="4.66019" ry="4.66018" fill="#F1B96A"/>
<ellipse cx="1309.51" cy="377.473" rx="4.66019" ry="4.66018" fill="#F1B96A"/>
<ellipse cx="1309.51" cy="330.871" rx="4.66019" ry="4.66018" fill="#F1B96A"/>
<ellipse cx="1309.51" cy="284.272" rx="4.66019" ry="4.66018" fill="#F1B96A"/>
<ellipse cx="1309.51" cy="237.67" rx="4.66019" ry="4.66018" fill="#F1B96A"/>
<ellipse cx="1309.51" cy="191.068" rx="4.66019" ry="4.66018" fill="#F1B96A"/>
<ellipse cx="1309.51" cy="144.467" rx="4.66019" ry="4.66018" fill="#F1B96A"/>
<ellipse cx="1309.51" cy="97.8633" rx="4.66019" ry="4.66018" fill="#F1B96A"/>
<ellipse cx="1309.51" cy="51.2617" rx="4.66019" ry="4.66018" fill="#F1B96A"/>
<ellipse cx="1309.51" cy="4.66018" rx="4.66019" ry="4.66018" fill="#F1B96A"/>
<ellipse cx="1589.12" cy="424.078" rx="4.66019" ry="4.66018" fill="#F1B96A"/>
<ellipse cx="1589.12" cy="377.473" rx="4.66019" ry="4.66018" fill="#F1B96A"/>
<ellipse cx="1589.12" cy="330.871" rx="4.66019" ry="4.66018" fill="#F1B96A"/>
<ellipse cx="1589.12" cy="284.272" rx="4.66019" ry="4.66018" fill="#F1B96A"/>
<ellipse cx="1589.12" cy="237.67" rx="4.66019" ry="4.66018" fill="#F1B96A"/>
<ellipse cx="1589.12" cy="191.068" rx="4.66019" ry="4.66018" fill="#F1B96A"/>
<ellipse cx="1589.12" cy="144.467" rx="4.66019" ry="4.66018" fill="#F1B96A"/>
<ellipse cx="1589.12" cy="97.8633" rx="4.66019" ry="4.66018" fill="#F1B96A"/>
<ellipse cx="1589.12" cy="51.2617" rx="4.66019" ry="4.66018" fill="#F1B96A"/>
<ellipse cx="1589.12" cy="4.66018" rx="4.66019" ry="4.66018" fill="#F1B96A"/>
</g>
</svg>
