<svg width="198" height="50" viewBox="0 0 198 50" fill="none" xmlns="http://www.w3.org/2000/svg">
<g clip-path="url(#clip0_233_29303)">
<path d="M23.3466 28.0694V0.234375L0 35.677L23.3466 28.0694Z" fill="#F1B96A"/>
<path d="M23.3464 31.5469L0.938965 38.8484L23.3464 49.7663V31.5469Z" fill="#F1B96A"/>
<path d="M26.6533 28.0694L50 35.677L26.6533 0.234375V28.0694Z" fill="#F1B96A"/>
<path d="M26.6533 31.5469V49.7663L49.0608 38.8484L26.6533 31.5469Z" fill="#F1B96A"/>
</g>
<path d="M79.6875 30.7422H84.5703C84.4141 32.6042 83.8932 34.2643 83.0078 35.7227C82.1224 37.168 80.8789 38.3073 79.2773 39.1406C77.6758 39.974 75.7292 40.3906 73.4375 40.3906C71.6797 40.3906 70.0977 40.0781 68.6914 39.4531C67.2852 38.8151 66.0807 37.9167 65.0781 36.7578C64.0755 35.5859 63.3073 34.1732 62.7734 32.5195C62.2526 30.8659 61.9922 29.0169 61.9922 26.9727V24.6094C61.9922 22.5651 62.2591 20.7161 62.793 19.0625C63.3398 17.4089 64.1211 15.9961 65.1367 14.8242C66.1523 13.6393 67.3698 12.7344 68.7891 12.1094C70.2214 11.4844 71.8294 11.1719 73.6133 11.1719C75.8789 11.1719 77.793 11.5885 79.3555 12.4219C80.918 13.2552 82.1289 14.4076 82.9883 15.8789C83.8607 17.3503 84.3945 19.0365 84.5898 20.9375H79.707C79.5768 19.7135 79.2904 18.6654 78.8477 17.793C78.418 16.9206 77.7799 16.2565 76.9336 15.8008C76.0872 15.332 74.9805 15.0977 73.6133 15.0977C72.4935 15.0977 71.5169 15.306 70.6836 15.7227C69.8503 16.1393 69.1536 16.7513 68.5938 17.5586C68.0339 18.3659 67.6107 19.362 67.3242 20.5469C67.0508 21.7188 66.9141 23.0599 66.9141 24.5703V26.9727C66.9141 28.4049 67.0378 29.707 67.2852 30.8789C67.5456 32.0378 67.9362 33.0339 68.457 33.8672C68.9909 34.7005 69.668 35.3451 70.4883 35.8008C71.3086 36.2565 72.2917 36.4844 73.4375 36.4844C74.8307 36.4844 75.957 36.263 76.8164 35.8203C77.6888 35.3776 78.3464 34.7331 78.7891 33.8867C79.2448 33.0273 79.5443 31.9792 79.6875 30.7422ZM87.6562 29.668V29.2188C87.6562 27.6953 87.8776 26.2826 88.3203 24.9805C88.763 23.6654 89.401 22.526 90.2344 21.5625C91.0807 20.5859 92.1094 19.8307 93.3203 19.2969C94.5443 18.75 95.9245 18.4766 97.4609 18.4766C99.0104 18.4766 100.391 18.75 101.602 19.2969C102.826 19.8307 103.861 20.5859 104.707 21.5625C105.553 22.526 106.198 23.6654 106.641 24.9805C107.083 26.2826 107.305 27.6953 107.305 29.2188V29.668C107.305 31.1914 107.083 32.6042 106.641 33.9062C106.198 35.2083 105.553 36.3477 104.707 37.3242C103.861 38.2878 102.832 39.043 101.621 39.5898C100.41 40.1237 99.0365 40.3906 97.5 40.3906C95.9505 40.3906 94.5638 40.1237 93.3398 39.5898C92.1289 39.043 91.1003 38.2878 90.2539 37.3242C89.4076 36.3477 88.763 35.2083 88.3203 33.9062C87.8776 32.6042 87.6562 31.1914 87.6562 29.668ZM92.3633 29.2188V29.668C92.3633 30.6185 92.4609 31.5169 92.6562 32.3633C92.8516 33.2096 93.1576 33.9518 93.5742 34.5898C93.9909 35.2279 94.5247 35.7292 95.1758 36.0938C95.8268 36.4583 96.6016 36.6406 97.5 36.6406C98.3724 36.6406 99.1276 36.4583 99.7656 36.0938C100.417 35.7292 100.951 35.2279 101.367 34.5898C101.784 33.9518 102.09 33.2096 102.285 32.3633C102.493 31.5169 102.598 30.6185 102.598 29.668V29.2188C102.598 28.2812 102.493 27.3958 102.285 26.5625C102.09 25.7161 101.777 24.9674 101.348 24.3164C100.931 23.6654 100.397 23.1576 99.7461 22.793C99.1081 22.4154 98.3464 22.2266 97.4609 22.2266C96.5755 22.2266 95.8073 22.4154 95.1562 22.793C94.5182 23.1576 93.9909 23.6654 93.5742 24.3164C93.1576 24.9674 92.8516 25.7161 92.6562 26.5625C92.4609 27.3958 92.3633 28.2812 92.3633 29.2188ZM115.918 23.3789V40H111.211V18.8672H115.645L115.918 23.3789ZM115.078 28.6523L113.555 28.6328C113.568 27.1354 113.776 25.7617 114.18 24.5117C114.596 23.2617 115.169 22.1875 115.898 21.2891C116.641 20.3906 117.526 19.7005 118.555 19.2188C119.583 18.724 120.729 18.4766 121.992 18.4766C123.008 18.4766 123.926 18.6198 124.746 18.9062C125.579 19.1797 126.289 19.6289 126.875 20.2539C127.474 20.8789 127.93 21.6927 128.242 22.6953C128.555 23.6849 128.711 24.9023 128.711 26.3477V40H123.984V26.3281C123.984 25.3125 123.835 24.5117 123.535 23.9258C123.249 23.3268 122.826 22.9036 122.266 22.6562C121.719 22.3958 121.035 22.2656 120.215 22.2656C119.408 22.2656 118.685 22.4349 118.047 22.7734C117.409 23.112 116.868 23.5742 116.426 24.1602C115.996 24.7461 115.664 25.4232 115.43 26.1914C115.195 26.9596 115.078 27.7799 115.078 28.6523ZM145.371 34.2773C145.371 33.8086 145.254 33.3854 145.02 33.0078C144.785 32.6172 144.336 32.2656 143.672 31.9531C143.021 31.6406 142.057 31.3542 140.781 31.0938C139.661 30.8464 138.633 30.5534 137.695 30.2148C136.771 29.8633 135.977 29.4401 135.312 28.9453C134.648 28.4505 134.134 27.8646 133.77 27.1875C133.405 26.5104 133.223 25.7292 133.223 24.8438C133.223 23.9844 133.411 23.1706 133.789 22.4023C134.167 21.6341 134.707 20.957 135.41 20.3711C136.113 19.7852 136.966 19.3229 137.969 18.9844C138.984 18.6458 140.117 18.4766 141.367 18.4766C143.138 18.4766 144.655 18.776 145.918 19.375C147.194 19.9609 148.171 20.7617 148.848 21.7773C149.525 22.7799 149.863 23.9128 149.863 25.1758H145.156C145.156 24.6159 145.013 24.0951 144.727 23.6133C144.453 23.1185 144.036 22.7214 143.477 22.4219C142.917 22.1094 142.214 21.9531 141.367 21.9531C140.56 21.9531 139.889 22.0833 139.355 22.3438C138.835 22.5911 138.444 22.9167 138.184 23.3203C137.936 23.724 137.812 24.1667 137.812 24.6484C137.812 25 137.878 25.319 138.008 25.6055C138.151 25.8789 138.385 26.1328 138.711 26.3672C139.036 26.5885 139.479 26.7969 140.039 26.9922C140.612 27.1875 141.328 27.3763 142.188 27.5586C143.802 27.8971 145.189 28.3333 146.348 28.8672C147.52 29.388 148.418 30.0651 149.043 30.8984C149.668 31.7188 149.98 32.7604 149.98 34.0234C149.98 34.9609 149.779 35.8203 149.375 36.6016C148.984 37.3698 148.411 38.0404 147.656 38.6133C146.901 39.1732 145.996 39.6094 144.941 39.9219C143.9 40.2344 142.728 40.3906 141.426 40.3906C139.512 40.3906 137.891 40.0521 136.562 39.375C135.234 38.6849 134.225 37.806 133.535 36.7383C132.858 35.6576 132.52 34.5378 132.52 33.3789H137.07C137.122 34.2513 137.363 34.9479 137.793 35.4688C138.236 35.9766 138.783 36.3477 139.434 36.582C140.098 36.8034 140.781 36.9141 141.484 36.9141C142.331 36.9141 143.04 36.8034 143.613 36.582C144.186 36.3477 144.622 36.0352 144.922 35.6445C145.221 35.2409 145.371 34.7852 145.371 34.2773ZM166.816 35.0195V18.8672H171.543V40H167.09L166.816 35.0195ZM167.48 30.625L169.062 30.5859C169.062 32.0052 168.906 33.3138 168.594 34.5117C168.281 35.6966 167.799 36.7318 167.148 37.6172C166.497 38.4896 165.664 39.1732 164.648 39.668C163.633 40.1497 162.415 40.3906 160.996 40.3906C159.967 40.3906 159.023 40.2409 158.164 39.9414C157.305 39.6419 156.562 39.1797 155.938 38.5547C155.326 37.9297 154.85 37.1159 154.512 36.1133C154.173 35.1107 154.004 33.9128 154.004 32.5195V18.8672H158.711V32.5586C158.711 33.3268 158.802 33.9714 158.984 34.4922C159.167 35 159.414 35.4102 159.727 35.7227C160.039 36.0352 160.404 36.2565 160.82 36.3867C161.237 36.5169 161.68 36.582 162.148 36.582C163.49 36.582 164.544 36.3216 165.312 35.8008C166.094 35.2669 166.647 34.5508 166.973 33.6523C167.311 32.7539 167.48 31.7448 167.48 30.625ZM181.406 10V40H176.68V10H181.406ZM196.25 18.8672V22.3047H184.336V18.8672H196.25ZM187.773 13.6914H192.48V34.1602C192.48 34.8112 192.572 35.3125 192.754 35.6641C192.949 36.0026 193.216 36.2305 193.555 36.3477C193.893 36.4648 194.29 36.5234 194.746 36.5234C195.072 36.5234 195.384 36.5039 195.684 36.4648C195.983 36.4258 196.224 36.3867 196.406 36.3477L196.426 39.9414C196.035 40.0586 195.579 40.1628 195.059 40.2539C194.551 40.3451 193.965 40.3906 193.301 40.3906C192.22 40.3906 191.263 40.2018 190.43 39.8242C189.596 39.4336 188.945 38.8021 188.477 37.9297C188.008 37.0573 187.773 35.8984 187.773 34.4531V13.6914Z" fill="#042320"/>
<defs>
<clipPath id="clip0_233_29303">
<rect width="50" height="50" fill="white"/>
</clipPath>
</defs>
</svg>
